  0
SECTION
  2
HEADER
  9
$ACADVER
  1
AC1009
  9
$FILLMODE
 70
1
  9
$EXTMIN
 10
-0.466322
 20
-0.048000
 30
0.000000
  9
$EXTMAX
 10
2.120000
 20
1.164672
 30
0.000000
  0
ENDSEC
  0
SECTION
  2
TABLES
  0
TABLE
  2
LTYPE
 70
1
  0
LTYPE
  2
CONTINUOUS
 70
64
  3
Solid line
 72
65
 73
0
 40
0
  0
ENDTAB
  0
TABLE
  2
LAYER
 70
255
  0
LAYER
  2
17
 70
64
 62
82
  6
CONTINUOUS
  0
LAYER
  2
18
 70
64
 62
82
  6
CONTINUOUS
  0
LAYER
  2
19
 70
64
 62
53
  6
CONTINUOUS
  0
LAYER
  2
20
 70
64
 62
7
  6
CONTINUOUS
  0
LAYER
  2
39
 70
64
 62
22
  6
CONTINUOUS
  0
LAYER
  2
40
 70
64
 62
175
  6
CONTINUOUS
  0
LAYER
  2
41
 70
64
 62
22
  6
CONTINUOUS
  0
LAYER
  2
42
 70
64
 62
175
  6
CONTINUOUS
  0
LAYER
  2
43
 70
64
 62
82
  6
CONTINUOUS
  0
LAYER
  2
48
 70
64
 62
253
  6
CONTINUOUS
  0
LAYER
  2
49
 70
64
 62
253
  6
CONTINUOUS
  0
LAYER
  2
251
 70
64
 62
253
  6
CONTINUOUS
  0
ENDTAB
  0
ENDSEC
  0
SECTION
  2
BLOCKS
  0
BLOCK
  8
0
  2
RECT
 70
64
 10
0.000000
 20
0.000000
 30
0.000000
  3
RECT
  0
SOLID
  8
0
 10
-0.500000
 20
-0.500000
 30
0.000000
 11
0.500000
 21
-0.500000
 31
0.000000
 12
-0.500000
 22
0.500000
 32
0.000000
 13
0.500000
 23
0.500000
 33
0.000000
  0
ENDBLK
  8
0
  0
BLOCK
  8
0
  2
PIE
 70
64
 10
0.000000
 20
0.000000
 30
0.000000
  3
PIE
  0
POLYLINE
  8
0
 66
1
 10
0.000000
 20
0.000000
 30
0.000000
 40
0.500000
 41
0.500000
 70
0
  0
VERTEX
  8
0
 10
0.000000
 20
-0.250000
 30
0.000000
 42
1.000000
  0
VERTEX
  8
0
 10
0.000000
 20
0.250000
 30
0.000000
 42
1.000000
  0
VERTEX
  8
0
 10
0.000000
 20
-0.250000
 30
0.000000
  0
SEQEND
  8
0
  0
ENDBLK
  8
0
  0
BLOCK
  8
0
  2
OCTAGONP
 70
64
 10
0.000000
 20
0.000000
 30
0.000000
  3
OCTAGONP
  0
POLYLINE
  8
0
 66
1
 10
0.000000
 20
0.000000
 30
0.000000
 40
0.500000
 41
0.500000
 70
0
  0
VERTEX
  8
0
 10
-0.250000
 20
-0.103553
 30
0.000000
  0
VERTEX
  8
0
 10
-0.250000
 20
0.103553
 30
0.000000
  0
VERTEX
  8
0
 10
-0.103553
 20
0.250000
 30
0.000000
  0
VERTEX
  8
0
 10
0.103553
 20
0.250000
 30
0.000000
  0
VERTEX
  8
0
 10
0.250000
 20
0.103553
 30
0.000000
  0
VERTEX
  8
0
 10
0.250000
 20
-0.103553
 30
0.000000
  0
VERTEX
  8
0
 10
0.103553
 20
-0.250000
 30
0.000000
  0
VERTEX
  8
0
 10
-0.103553
 20
-0.250000
 30
0.000000
  0
VERTEX
  8
0
 10
-0.250000
 20
-0.103553
 30
0.000000
  0
VERTEX
  8
0
 10
-0.250000
 20
0.103553
 30
0.000000
  0
SEQEND
  8
0
  0
ENDBLK
  8
0
  0
BLOCK
  8
0
  2
SQUAREP
 70
64
 10
0.000000
 20
0.000000
 30
0.000000
  3
SQUAREP
  0
SOLID
  8
0
 10
-0.500000
 20
-0.500000
 30
0.000000
 11
0.500000
 21
-0.500000
 31
0.000000
 12
-0.500000
 22
0.500000
 32
0.000000
 13
0.500000
 23
0.500000
 33
0.000000
  0
ENDBLK
  8
0
  0
BLOCK
  8
0
  2
ROUNDP
 70
64
 10
0.000000
 20
0.000000
 30
0.000000
  3
ROUNDP
  0
POLYLINE
  8
0
 66
1
 10
0.000000
 20
0.000000
 30
0.000000
 40
0.500000
 41
0.500000
 70
0
  0
VERTEX
  8
0
 10
0.000000
 20
-0.250000
 30
0.000000
 42
1.000000
  0
VERTEX
  8
0
 10
0.000000
 20
0.250000
 30
0.000000
 42
1.000000
  0
VERTEX
  8
0
 10
0.000000
 20
-0.250000
 30
0.000000
  0
SEQEND
  8
0
  0
ENDBLK
  8
0
  0
BLOCK
  8
0
  2
ANNULUSP
 70
64
 10
0.000000
 20
0.000000
 30
0.000000
  3
ANNULUSP
  0
POLYLINE
  8
0
 66
1
 10
0.000000
 20
0.000000
 30
0.000000
 40
0.500000
 41
0.500000
 70
0
  0
VERTEX
  8
0
 10
0.000000
 20
-0.250000
 30
0.000000
 42
1.000000
  0
VERTEX
  8
0
 10
0.000000
 20
0.250000
 30
0.000000
 42
1.000000
  0
VERTEX
  8
0
 10
0.000000
 20
-0.250000
 30
0.000000
  0
SEQEND
  8
0
  0
ENDBLK
  8
0
  0
BLOCK
  8
0
  2
THERMALP
 70
64
 10
0.000000
 20
0.000000
 30
0.000000
  3
THERMALP
  0
POLYLINE
  8
0
 66
1
 10
0.000000
 20
0.000000
 30
0.000000
 40
0.100000
 41
0.100000
 70
0
  0
VERTEX
  8
0
 10
-0.237868
 20
0.450000
 30
0.000000
  0
VERTEX
  8
0
 10
0.237868
 20
0.450000
 30
0.000000
  0
SEQEND
  8
0
  0
POLYLINE
  8
0
 66
1
 10
0.000000
 20
0.000000
 30
0.000000
 40
0.050000
 41
0.050000
 70
0
  0
VERTEX
  8
0
 10
0.237868
 20
0.425000
 30
0.000000
 42
1.000000
  0
VERTEX
  8
0
 10
0.237868
 20
0.475000
 30
0.000000
  0
SEQEND
  8
0
  0
POLYLINE
  8
0
 66
1
 10
0.000000
 20
0.000000
 30
0.000000
 40
0.050000
 41
0.050000
 70
0
  0
VERTEX
  8
0
 10
-0.237868
 20
0.475000
 30
0.000000
 42
1.000000
  0
VERTEX
  8
0
 10
-0.237868
 20
0.425000
 30
0.000000
  0
SEQEND
  8
0
  0
POLYLINE
  8
0
 66
1
 10
0.000000
 20
0.000000
 30
0.000000
 40
0.100000
 41
0.100000
 70
0
  0
VERTEX
  8
0
 10
0.450000
 20
0.237868
 30
0.000000
  0
VERTEX
  8
0
 10
0.450000
 20
-0.237868
 30
0.000000
  0
SEQEND
  8
0
  0
POLYLINE
  8
0
 66
1
 10
0.000000
 20
0.000000
 30
0.000000
 40
0.050000
 41
0.050000
 70
0
  0
VERTEX
  8
0
 10
0.425000
 20
-0.237868
 30
0.000000
 42
1.000000
  0
VERTEX
  8
0
 10
0.475000
 20
-0.237868
 30
0.000000
  0
SEQEND
  8
0
  0
POLYLINE
  8
0
 66
1
 10
0.000000
 20
0.000000
 30
0.000000
 40
0.050000
 41
0.050000
 70
0
  0
VERTEX
  8
0
 10
0.475000
 20
0.237868
 30
0.000000
 42
1.000000
  0
VERTEX
  8
0
 10
0.425000
 20
0.237868
 30
0.000000
  0
SEQEND
  8
0
  0
POLYLINE
  8
0
 66
1
 10
0.000000
 20
0.000000
 30
0.000000
 40
0.100000
 41
0.100000
 70
0
  0
VERTEX
  8
0
 10
0.237868
 20
-0.450000
 30
0.000000
  0
VERTEX
  8
0
 10
-0.237868
 20
-0.450000
 30
0.000000
  0
SEQEND
  8
0
  0
POLYLINE
  8
0
 66
1
 10
0.000000
 20
0.000000
 30
0.000000
 40
0.050000
 41
0.050000
 70
0
  0
VERTEX
  8
0
 10
-0.237868
 20
-0.425000
 30
0.000000
 42
1.000000
  0
VERTEX
  8
0
 10
-0.237868
 20
-0.475000
 30
0.000000
  0
SEQEND
  8
0
  0
POLYLINE
  8
0
 66
1
 10
0.000000
 20
0.000000
 30
0.000000
 40
0.050000
 41
0.050000
 70
0
  0
VERTEX
  8
0
 10
0.237868
 20
-0.475000
 30
0.000000
 42
1.000000
  0
VERTEX
  8
0
 10
0.237868
 20
-0.425000
 30
0.000000
  0
SEQEND
  8
0
  0
POLYLINE
  8
0
 66
1
 10
0.000000
 20
0.000000
 30
0.000000
 40
0.100000
 41
0.100000
 70
0
  0
VERTEX
  8
0
 10
-0.450000
 20
-0.237868
 30
0.000000
  0
VERTEX
  8
0
 10
-0.450000
 20
0.237868
 30
0.000000
  0
SEQEND
  8
0
  0
POLYLINE
  8
0
 66
1
 10
0.000000
 20
0.000000
 30
0.000000
 40
0.050000
 41
0.050000
 70
0
  0
VERTEX
  8
0
 10
-0.425000
 20
0.237868
 30
0.000000
 42
1.000000
  0
VERTEX
  8
0
 10
-0.475000
 20
0.237868
 30
0.000000
  0
SEQEND
  8
0
  0
POLYLINE
  8
0
 66
1
 10
0.000000
 20
0.000000
 30
0.000000
 40
0.050000
 41
0.050000
 70
0
  0
VERTEX
  8
0
 10
-0.475000
 20
-0.237868
 30
0.000000
 42
1.000000
  0
VERTEX
  8
0
 10
-0.425000
 20
-0.237868
 30
0.000000
  0
SEQEND
  8
0
  0
ENDBLK
  8
0
  0
BLOCK
  8
0
  2
OCTAGONV
 70
64
 10
0.000000
 20
0.000000
 30
0.000000
  3
OCTAGONV
  0
POLYLINE
  8
0
 66
1
 10
0.000000
 20
0.000000
 30
0.000000
 40
0.500000
 41
0.500000
 70
0
  0
VERTEX
  8
0
 10
-0.250000
 20
-0.103553
 30
0.000000
  0
VERTEX
  8
0
 10
-0.250000
 20
0.103553
 30
0.000000
  0
VERTEX
  8
0
 10
-0.103553
 20
0.250000
 30
0.000000
  0
VERTEX
  8
0
 10
0.103553
 20
0.250000
 30
0.000000
  0
VERTEX
  8
0
 10
0.250000
 20
0.103553
 30
0.000000
  0
VERTEX
  8
0
 10
0.250000
 20
-0.103553
 30
0.000000
  0
VERTEX
  8
0
 10
0.103553
 20
-0.250000
 30
0.000000
  0
VERTEX
  8
0
 10
-0.103553
 20
-0.250000
 30
0.000000
  0
VERTEX
  8
0
 10
-0.250000
 20
-0.103553
 30
0.000000
  0
VERTEX
  8
0
 10
-0.250000
 20
0.103553
 30
0.000000
  0
SEQEND
  8
0
  0
ENDBLK
  8
0
  0
BLOCK
  8
0
  2
SQUAREV
 70
64
 10
0.000000
 20
0.000000
 30
0.000000
  3
SQUAREV
  0
SOLID
  8
0
 10
-0.500000
 20
-0.500000
 30
0.000000
 11
0.500000
 21
-0.500000
 31
0.000000
 12
-0.500000
 22
0.500000
 32
0.000000
 13
0.500000
 23
0.500000
 33
0.000000
  0
ENDBLK
  8
0
  0
BLOCK
  8
0
  2
ROUNDV
 70
64
 10
0.000000
 20
0.000000
 30
0.000000
  3
ROUNDV
  0
POLYLINE
  8
0
 66
1
 10
0.000000
 20
0.000000
 30
0.000000
 40
0.500000
 41
0.500000
 70
0
  0
VERTEX
  8
0
 10
0.000000
 20
-0.250000
 30
0.000000
 42
1.000000
  0
VERTEX
  8
0
 10
0.000000
 20
0.250000
 30
0.000000
 42
1.000000
  0
VERTEX
  8
0
 10
0.000000
 20
-0.250000
 30
0.000000
  0
SEQEND
  8
0
  0
ENDBLK
  8
0
  0
BLOCK
  8
0
  2
ANNULUSV
 70
64
 10
0.000000
 20
0.000000
 30
0.000000
  3
ANNULUSV
  0
POLYLINE
  8
0
 66
1
 10
0.000000
 20
0.000000
 30
0.000000
 40
0.500000
 41
0.500000
 70
0
  0
VERTEX
  8
0
 10
0.000000
 20
-0.250000
 30
0.000000
 42
1.000000
  0
VERTEX
  8
0
 10
0.000000
 20
0.250000
 30
0.000000
 42
1.000000
  0
VERTEX
  8
0
 10
0.000000
 20
-0.250000
 30
0.000000
  0
SEQEND
  8
0
  0
ENDBLK
  8
0
  0
BLOCK
  8
0
  2
THERMALV
 70
64
 10
0.000000
 20
0.000000
 30
0.000000
  3
THERMALV
  0
POLYLINE
  8
0
 66
1
 10
0.000000
 20
0.000000
 30
0.000000
 40
0.100000
 41
0.100000
 70
0
  0
VERTEX
  8
0
 10
-0.237868
 20
0.450000
 30
0.000000
  0
VERTEX
  8
0
 10
0.237868
 20
0.450000
 30
0.000000
  0
SEQEND
  8
0
  0
POLYLINE
  8
0
 66
1
 10
0.000000
 20
0.000000
 30
0.000000
 40
0.050000
 41
0.050000
 70
0
  0
VERTEX
  8
0
 10
0.237868
 20
0.425000
 30
0.000000
 42
1.000000
  0
VERTEX
  8
0
 10
0.237868
 20
0.475000
 30
0.000000
  0
SEQEND
  8
0
  0
POLYLINE
  8
0
 66
1
 10
0.000000
 20
0.000000
 30
0.000000
 40
0.050000
 41
0.050000
 70
0
  0
VERTEX
  8
0
 10
-0.237868
 20
0.475000
 30
0.000000
 42
1.000000
  0
VERTEX
  8
0
 10
-0.237868
 20
0.425000
 30
0.000000
  0
SEQEND
  8
0
  0
POLYLINE
  8
0
 66
1
 10
0.000000
 20
0.000000
 30
0.000000
 40
0.100000
 41
0.100000
 70
0
  0
VERTEX
  8
0
 10
0.450000
 20
0.237868
 30
0.000000
  0
VERTEX
  8
0
 10
0.450000
 20
-0.237868
 30
0.000000
  0
SEQEND
  8
0
  0
POLYLINE
  8
0
 66
1
 10
0.000000
 20
0.000000
 30
0.000000
 40
0.050000
 41
0.050000
 70
0
  0
VERTEX
  8
0
 10
0.425000
 20
-0.237868
 30
0.000000
 42
1.000000
  0
VERTEX
  8
0
 10
0.475000
 20
-0.237868
 30
0.000000
  0
SEQEND
  8
0
  0
POLYLINE
  8
0
 66
1
 10
0.000000
 20
0.000000
 30
0.000000
 40
0.050000
 41
0.050000
 70
0
  0
VERTEX
  8
0
 10
0.475000
 20
0.237868
 30
0.000000
 42
1.000000
  0
VERTEX
  8
0
 10
0.425000
 20
0.237868
 30
0.000000
  0
SEQEND
  8
0
  0
POLYLINE
  8
0
 66
1
 10
0.000000
 20
0.000000
 30
0.000000
 40
0.100000
 41
0.100000
 70
0
  0
VERTEX
  8
0
 10
0.237868
 20
-0.450000
 30
0.000000
  0
VERTEX
  8
0
 10
-0.237868
 20
-0.450000
 30
0.000000
  0
SEQEND
  8
0
  0
POLYLINE
  8
0
 66
1
 10
0.000000
 20
0.000000
 30
0.000000
 40
0.050000
 41
0.050000
 70
0
  0
VERTEX
  8
0
 10
-0.237868
 20
-0.425000
 30
0.000000
 42
1.000000
  0
VERTEX
  8
0
 10
-0.237868
 20
-0.475000
 30
0.000000
  0
SEQEND
  8
0
  0
POLYLINE
  8
0
 66
1
 10
0.000000
 20
0.000000
 30
0.000000
 40
0.050000
 41
0.050000
 70
0
  0
VERTEX
  8
0
 10
0.237868
 20
-0.475000
 30
0.000000
 42
1.000000
  0
VERTEX
  8
0
 10
0.237868
 20
-0.425000
 30
0.000000
  0
SEQEND
  8
0
  0
POLYLINE
  8
0
 66
1
 10
0.000000
 20
0.000000
 30
0.000000
 40
0.100000
 41
0.100000
 70
0
  0
VERTEX
  8
0
 10
-0.450000
 20
-0.237868
 30
0.000000
  0
VERTEX
  8
0
 10
-0.450000
 20
0.237868
 30
0.000000
  0
SEQEND
  8
0
  0
POLYLINE
  8
0
 66
1
 10
0.000000
 20
0.000000
 30
0.000000
 40
0.050000
 41
0.050000
 70
0
  0
VERTEX
  8
0
 10
-0.425000
 20
0.237868
 30
0.000000
 42
1.000000
  0
VERTEX
  8
0
 10
-0.475000
 20
0.237868
 30
0.000000
  0
SEQEND
  8
0
  0
POLYLINE
  8
0
 66
1
 10
0.000000
 20
0.000000
 30
0.000000
 40
0.050000
 41
0.050000
 70
0
  0
VERTEX
  8
0
 10
-0.475000
 20
-0.237868
 30
0.000000
 42
1.000000
  0
VERTEX
  8
0
 10
-0.425000
 20
-0.237868
 30
0.000000
  0
SEQEND
  8
0
  0
ENDBLK
  8
0
  0
BLOCK
  8
0
  2
LONGP100
 70
64
 10
0.000000
 20
0.000000
 30
0.000000
  3
LONGP100
  0
POLYLINE
  8
0
 66
1
 10
0.000000
 20
0.000000
 30
0.000000
 40
1.000000
 41
1.000000
 70
0
  0
VERTEX
  8
0
 10
-0.500000
 20
0.000000
 30
0.000000
  0
VERTEX
  8
0
 10
0.500000
 20
0.000000
 30
0.000000
  0
SEQEND
  8
0
  0
POLYLINE
  8
0
 66
1
 10
0.000000
 20
0.000000
 30
0.000000
 40
0.500000
 41
0.500000
 70
0
  0
VERTEX
  8
0
 10
0.500000
 20
-0.250000
 30
0.000000
 42
1.000000
  0
VERTEX
  8
0
 10
0.500000
 20
0.250000
 30
0.000000
  0
SEQEND
  8
0
  0
POLYLINE
  8
0
 66
1
 10
0.000000
 20
0.000000
 30
0.000000
 40
0.500000
 41
0.500000
 70
0
  0
VERTEX
  8
0
 10
-0.500000
 20
0.250000
 30
0.000000
 42
1.000000
  0
VERTEX
  8
0
 10
-0.500000
 20
-0.250000
 30
0.000000
  0
SEQEND
  8
0
  0
ENDBLK
  8
0
  0
ENDSEC
  0
SECTION
  2
ENTITIES
  0
POLYLINE
  8
20
 66
1
 10
0.000000
 20
0.000000
 30
0.000000
 40
0.004000
 41
0.004000
 70
0
  0
VERTEX
  8
20
 10
0.000000
 20
0.000000
 30
0.000000
  0
VERTEX
  8
20
 10
0.000000
 20
1.080000
 30
0.000000
  0
SEQEND
  8
0
  0
POLYLINE
  8
20
 66
1
 10
0.000000
 20
0.000000
 30
0.000000
 40
0.002000
 41
0.002000
 70
0
  0
VERTEX
  8
20
 10
0.001000
 20
1.080000
 30
0.000000
 42
1.000000
  0
VERTEX
  8
20
 10
-0.001000
 20
1.080000
 30
0.000000
  0
SEQEND
  8
0
  0
POLYLINE
  8
20
 66
1
 10
0.000000
 20
0.000000
 30
0.000000
 40
0.002000
 41
0.002000
 70
0
  0
VERTEX
  8
20
 10
-0.001000
 20
0.000000
 30
0.000000
 42
1.000000
  0
VERTEX
  8
20
 10
0.001000
 20
0.000000
 30
0.000000
  0
SEQEND
  8
0
  0
POLYLINE
  8
20
 66
1
 10
0.000000
 20
0.000000
 30
0.000000
 40
0.004000
 41
0.004000
 70
0
  0
VERTEX
  8
20
 10
0.000000
 20
1.080000
 30
0.000000
  0
VERTEX
  8
20
 10
1.770000
 20
1.080000
 30
0.000000
  0
SEQEND
  8
0
  0
POLYLINE
  8
20
 66
1
 10
0.000000
 20
0.000000
 30
0.000000
 40
0.002000
 41
0.002000
 70
0
  0
VERTEX
  8
20
 10
1.770000
 20
1.079000
 30
0.000000
 42
1.000000
  0
VERTEX
  8
20
 10
1.770000
 20
1.081000
 30
0.000000
  0
SEQEND
  8
0
  0
POLYLINE
  8
20
 66
1
 10
0.000000
 20
0.000000
 30
0.000000
 40
0.002000
 41
0.002000
 70
0
  0
VERTEX
  8
20
 10
0.000000
 20
1.081000
 30
0.000000
 42
1.000000
  0
VERTEX
  8
20
 10
0.000000
 20
1.079000
 30
0.000000
  0
SEQEND
  8
0
  0
POLYLINE
  8
20
 66
1
 10
0.000000
 20
0.000000
 30
0.000000
 40
0.004000
 41
0.004000
 70
0
  0
VERTEX
  8
20
 10
1.770000
 20
1.080000
 30
0.000000
  0
VERTEX
  8
20
 10
1.770000
 20
0.000000
 30
0.000000
  0
SEQEND
  8
0
  0
POLYLINE
  8
20
 66
1
 10
0.000000
 20
0.000000
 30
0.000000
 40
0.002000
 41
0.002000
 70
0
  0
VERTEX
  8
20
 10
1.769000
 20
0.000000
 30
0.000000
 42
1.000000
  0
VERTEX
  8
20
 10
1.771000
 20
0.000000
 30
0.000000
  0
SEQEND
  8
0
  0
POLYLINE
  8
20
 66
1
 10
0.000000
 20
0.000000
 30
0.000000
 40
0.002000
 41
0.002000
 70
0
  0
VERTEX
  8
20
 10
1.771000
 20
1.080000
 30
0.000000
 42
1.000000
  0
VERTEX
  8
20
 10
1.769000
 20
1.080000
 30
0.000000
  0
SEQEND
  8
0
  0
POLYLINE
  8
20
 66
1
 10
0.000000
 20
0.000000
 30
0.000000
 40
0.004000
 41
0.004000
 70
0
  0
VERTEX
  8
20
 10
1.770000
 20
0.000000
 30
0.000000
  0
VERTEX
  8
20
 10
0.000000
 20
0.000000
 30
0.000000
  0
SEQEND
  8
0
  0
POLYLINE
  8
20
 66
1
 10
0.000000
 20
0.000000
 30
0.000000
 40
0.002000
 41
0.002000
 70
0
  0
VERTEX
  8
20
 10
0.000000
 20
0.001000
 30
0.000000
 42
1.000000
  0
VERTEX
  8
20
 10
0.000000
 20
-0.001000
 30
0.000000
  0
SEQEND
  8
0
  0
POLYLINE
  8
20
 66
1
 10
0.000000
 20
0.000000
 30
0.000000
 40
0.002000
 41
0.002000
 70
0
  0
VERTEX
  8
20
 10
1.770000
 20
-0.001000
 30
0.000000
 42
1.000000
  0
VERTEX
  8
20
 10
1.770000
 20
0.001000
 30
0.000000
  0
SEQEND
  8
0
  0
INSERT
  8
17
  2
LONGP100
 10
0.080000
 20
0.460000
 30
0.000000
 41
0.064000
 42
0.064000
 43
1.000000
 50
180.000000
  0
INSERT
  8
17
  2
LONGP100
 10
0.080000
 20
0.460000
 30
0.000000
 41
0.064000
 42
0.064000
 43
1.000000
 50
180.000000
  0
INSERT
  8
17
  2
LONGP100
 10
0.080000
 20
0.560000
 30
0.000000
 41
0.064000
 42
0.064000
 43
1.000000
 50
180.000000
  0
INSERT
  8
17
  2
LONGP100
 10
0.080000
 20
0.560000
 30
0.000000
 41
0.064000
 42
0.064000
 43
1.000000
 50
180.000000
  0
INSERT
  8
17
  2
LONGP100
 10
1.680000
 20
0.720000
 30
0.000000
 41
0.064000
 42
0.064000
 43
1.000000
 50
0.000000
  0
INSERT
  8
17
  2
LONGP100
 10
1.680000
 20
0.720000
 30
0.000000
 41
0.064000
 42
0.064000
 43
1.000000
 50
0.000000
  0
INSERT
  8
17
  2
LONGP100
 10
1.680000
 20
0.620000
 30
0.000000
 41
0.064000
 42
0.064000
 43
1.000000
 50
0.000000
  0
INSERT
  8
17
  2
LONGP100
 10
1.680000
 20
0.620000
 30
0.000000
 41
0.064000
 42
0.064000
 43
1.000000
 50
0.000000
  0
POLYLINE
  8
39
 66
1
 10
0.000000
 20
0.000000
 30
0.000000
 40
0.002000
 41
0.002000
 70
0
  0
VERTEX
  8
39
 10
1.737047
 20
0.904685
 30
0.000000
  0
VERTEX
  8
39
 10
1.621063
 20
0.904685
 30
0.000000
  0
SEQEND
  8
0
  0
POLYLINE
  8
39
 66
1
 10
0.000000
 20
0.000000
 30
0.000000
 40
0.001000
 41
0.001000
 70
0
  0
VERTEX
  8
39
 10
1.621063
 20
0.905185
 30
0.000000
 42
1.000000
  0
VERTEX
  8
39
 10
1.621063
 20
0.904185
 30
0.000000
  0
SEQEND
  8
0
  0
POLYLINE
  8
39
 66
1
 10
0.000000
 20
0.000000
 30
0.000000
 40
0.001000
 41
0.001000
 70
0
  0
VERTEX
  8
39
 10
1.737047
 20
0.904185
 30
0.000000
 42
1.000000
  0
VERTEX
  8
39
 10
1.737047
 20
0.905185
 30
0.000000
  0
SEQEND
  8
0
  0
POLYLINE
  8
39
 66
1
 10
0.000000
 20
0.000000
 30
0.000000
 40
0.002000
 41
0.002000
 70
0
  0
VERTEX
  8
39
 10
1.621063
 20
0.904685
 30
0.000000
  0
VERTEX
  8
39
 10
1.621063
 20
0.982087
 30
0.000000
  0
SEQEND
  8
0
  0
POLYLINE
  8
39
 66
1
 10
0.000000
 20
0.000000
 30
0.000000
 40
0.001000
 41
0.001000
 70
0
  0
VERTEX
  8
39
 10
1.621563
 20
0.982087
 30
0.000000
 42
1.000000
  0
VERTEX
  8
39
 10
1.620563
 20
0.982087
 30
0.000000
  0
SEQEND
  8
0
  0
POLYLINE
  8
39
 66
1
 10
0.000000
 20
0.000000
 30
0.000000
 40
0.001000
 41
0.001000
 70
0
  0
VERTEX
  8
39
 10
1.620563
 20
0.904685
 30
0.000000
 42
1.000000
  0
VERTEX
  8
39
 10
1.621563
 20
0.904685
 30
0.000000
  0
SEQEND
  8
0
  0
POLYLINE
  8
39
 66
1
 10
0.000000
 20
0.000000
 30
0.000000
 40
0.002000
 41
0.002000
 70
0
  0
VERTEX
  8
39
 10
1.621063
 20
0.982087
 30
0.000000
  0
VERTEX
  8
39
 10
1.737047
 20
0.982087
 30
0.000000
  0
SEQEND
  8
0
  0
POLYLINE
  8
39
 66
1
 10
0.000000
 20
0.000000
 30
0.000000
 40
0.001000
 41
0.001000
 70
0
  0
VERTEX
  8
39
 10
1.737047
 20
0.981587
 30
0.000000
 42
1.000000
  0
VERTEX
  8
39
 10
1.737047
 20
0.982587
 30
0.000000
  0
SEQEND
  8
0
  0
POLYLINE
  8
39
 66
1
 10
0.000000
 20
0.000000
 30
0.000000
 40
0.001000
 41
0.001000
 70
0
  0
VERTEX
  8
39
 10
1.621063
 20
0.982587
 30
0.000000
 42
1.000000
  0
VERTEX
  8
39
 10
1.621063
 20
0.981587
 30
0.000000
  0
SEQEND
  8
0
  0
POLYLINE
  8
39
 66
1
 10
0.000000
 20
0.000000
 30
0.000000
 40
0.002000
 41
0.002000
 70
0
  0
VERTEX
  8
39
 10
1.737047
 20
0.982087
 30
0.000000
  0
VERTEX
  8
39
 10
1.737047
 20
0.904685
 30
0.000000
  0
SEQEND
  8
0
  0
POLYLINE
  8
39
 66
1
 10
0.000000
 20
0.000000
 30
0.000000
 40
0.001000
 41
0.001000
 70
0
  0
VERTEX
  8
39
 10
1.736547
 20
0.904685
 30
0.000000
 42
1.000000
  0
VERTEX
  8
39
 10
1.737547
 20
0.904685
 30
0.000000
  0
SEQEND
  8
0
  0
POLYLINE
  8
39
 66
1
 10
0.000000
 20
0.000000
 30
0.000000
 40
0.001000
 41
0.001000
 70
0
  0
VERTEX
  8
39
 10
1.737547
 20
0.982087
 30
0.000000
 42
1.000000
  0
VERTEX
  8
39
 10
1.736547
 20
0.982087
 30
0.000000
  0
SEQEND
  8
0
  0
POLYLINE
  8
39
 66
1
 10
0.000000
 20
0.000000
 30
0.000000
 40
0.002000
 41
0.002000
 70
0
  0
VERTEX
  8
39
 10
1.163031
 20
0.873882
 30
0.000000
  0
VERTEX
  8
39
 10
1.163031
 20
0.757898
 30
0.000000
  0
SEQEND
  8
0
  0
POLYLINE
  8
39
 66
1
 10
0.000000
 20
0.000000
 30
0.000000
 40
0.001000
 41
0.001000
 70
0
  0
VERTEX
  8
39
 10
1.162531
 20
0.757898
 30
0.000000
 42
1.000000
  0
VERTEX
  8
39
 10
1.163531
 20
0.757898
 30
0.000000
  0
SEQEND
  8
0
  0
POLYLINE
  8
39
 66
1
 10
0.000000
 20
0.000000
 30
0.000000
 40
0.001000
 41
0.001000
 70
0
  0
VERTEX
  8
39
 10
1.163531
 20
0.873882
 30
0.000000
 42
1.000000
  0
VERTEX
  8
39
 10
1.162531
 20
0.873882
 30
0.000000
  0
SEQEND
  8
0
  0
POLYLINE
  8
39
 66
1
 10
0.000000
 20
0.000000
 30
0.000000
 40
0.002000
 41
0.002000
 70
0
  0
VERTEX
  8
39
 10
1.163031
 20
0.757898
 30
0.000000
  0
VERTEX
  8
39
 10
1.085630
 20
0.757898
 30
0.000000
  0
SEQEND
  8
0
  0
POLYLINE
  8
39
 66
1
 10
0.000000
 20
0.000000
 30
0.000000
 40
0.001000
 41
0.001000
 70
0
  0
VERTEX
  8
39
 10
1.085630
 20
0.758398
 30
0.000000
 42
1.000000
  0
VERTEX
  8
39
 10
1.085630
 20
0.757398
 30
0.000000
  0
SEQEND
  8
0
  0
POLYLINE
  8
39
 66
1
 10
0.000000
 20
0.000000
 30
0.000000
 40
0.001000
 41
0.001000
 70
0
  0
VERTEX
  8
39
 10
1.163031
 20
0.757398
 30
0.000000
 42
1.000000
  0
VERTEX
  8
39
 10
1.163031
 20
0.758398
 30
0.000000
  0
SEQEND
  8
0
  0
POLYLINE
  8
39
 66
1
 10
0.000000
 20
0.000000
 30
0.000000
 40
0.002000
 41
0.002000
 70
0
  0
VERTEX
  8
39
 10
1.085630
 20
0.757898
 30
0.000000
  0
VERTEX
  8
39
 10
1.085630
 20
0.873882
 30
0.000000
  0
SEQEND
  8
0
  0
POLYLINE
  8
39
 66
1
 10
0.000000
 20
0.000000
 30
0.000000
 40
0.001000
 41
0.001000
 70
0
  0
VERTEX
  8
39
 10
1.086130
 20
0.873882
 30
0.000000
 42
1.000000
  0
VERTEX
  8
39
 10
1.085130
 20
0.873882
 30
0.000000
  0
SEQEND
  8
0
  0
POLYLINE
  8
39
 66
1
 10
0.000000
 20
0.000000
 30
0.000000
 40
0.001000
 41
0.001000
 70
0
  0
VERTEX
  8
39
 10
1.085130
 20
0.757898
 30
0.000000
 42
1.000000
  0
VERTEX
  8
39
 10
1.086130
 20
0.757898
 30
0.000000
  0
SEQEND
  8
0
  0
POLYLINE
  8
39
 66
1
 10
0.000000
 20
0.000000
 30
0.000000
 40
0.002000
 41
0.002000
 70
0
  0
VERTEX
  8
39
 10
1.085630
 20
0.873882
 30
0.000000
  0
VERTEX
  8
39
 10
1.163031
 20
0.873882
 30
0.000000
  0
SEQEND
  8
0
  0
POLYLINE
  8
39
 66
1
 10
0.000000
 20
0.000000
 30
0.000000
 40
0.001000
 41
0.001000
 70
0
  0
VERTEX
  8
39
 10
1.163031
 20
0.873382
 30
0.000000
 42
1.000000
  0
VERTEX
  8
39
 10
1.163031
 20
0.874382
 30
0.000000
  0
SEQEND
  8
0
  0
POLYLINE
  8
39
 66
1
 10
0.000000
 20
0.000000
 30
0.000000
 40
0.001000
 41
0.001000
 70
0
  0
VERTEX
  8
39
 10
1.085630
 20
0.874382
 30
0.000000
 42
1.000000
  0
VERTEX
  8
39
 10
1.085630
 20
0.873382
 30
0.000000
  0
SEQEND
  8
0
  0
POLYLINE
  8
39
 66
1
 10
0.000000
 20
0.000000
 30
0.000000
 40
0.002000
 41
0.002000
 70
0
  0
VERTEX
  8
39
 10
1.286370
 20
0.874102
 30
0.000000
  0
VERTEX
  8
39
 10
1.286370
 20
0.758118
 30
0.000000
  0
SEQEND
  8
0
  0
POLYLINE
  8
39
 66
1
 10
0.000000
 20
0.000000
 30
0.000000
 40
0.001000
 41
0.001000
 70
0
  0
VERTEX
  8
39
 10
1.285870
 20
0.758118
 30
0.000000
 42
1.000000
  0
VERTEX
  8
39
 10
1.286870
 20
0.758118
 30
0.000000
  0
SEQEND
  8
0
  0
POLYLINE
  8
39
 66
1
 10
0.000000
 20
0.000000
 30
0.000000
 40
0.001000
 41
0.001000
 70
0
  0
VERTEX
  8
39
 10
1.286870
 20
0.874102
 30
0.000000
 42
1.000000
  0
VERTEX
  8
39
 10
1.285870
 20
0.874102
 30
0.000000
  0
SEQEND
  8
0
  0
POLYLINE
  8
39
 66
1
 10
0.000000
 20
0.000000
 30
0.000000
 40
0.002000
 41
0.002000
 70
0
  0
VERTEX
  8
39
 10
1.286370
 20
0.758118
 30
0.000000
  0
VERTEX
  8
39
 10
1.208969
 20
0.758118
 30
0.000000
  0
SEQEND
  8
0
  0
POLYLINE
  8
39
 66
1
 10
0.000000
 20
0.000000
 30
0.000000
 40
0.001000
 41
0.001000
 70
0
  0
VERTEX
  8
39
 10
1.208969
 20
0.758618
 30
0.000000
 42
1.000000
  0
VERTEX
  8
39
 10
1.208969
 20
0.757618
 30
0.000000
  0
SEQEND
  8
0
  0
POLYLINE
  8
39
 66
1
 10
0.000000
 20
0.000000
 30
0.000000
 40
0.001000
 41
0.001000
 70
0
  0
VERTEX
  8
39
 10
1.286370
 20
0.757618
 30
0.000000
 42
1.000000
  0
VERTEX
  8
39
 10
1.286370
 20
0.758618
 30
0.000000
  0
SEQEND
  8
0
  0
POLYLINE
  8
39
 66
1
 10
0.000000
 20
0.000000
 30
0.000000
 40
0.002000
 41
0.002000
 70
0
  0
VERTEX
  8
39
 10
1.208969
 20
0.758118
 30
0.000000
  0
VERTEX
  8
39
 10
1.208969
 20
0.874102
 30
0.000000
  0
SEQEND
  8
0
  0
POLYLINE
  8
39
 66
1
 10
0.000000
 20
0.000000
 30
0.000000
 40
0.001000
 41
0.001000
 70
0
  0
VERTEX
  8
39
 10
1.209469
 20
0.874102
 30
0.000000
 42
1.000000
  0
VERTEX
  8
39
 10
1.208469
 20
0.874102
 30
0.000000
  0
SEQEND
  8
0
  0
POLYLINE
  8
39
 66
1
 10
0.000000
 20
0.000000
 30
0.000000
 40
0.001000
 41
0.001000
 70
0
  0
VERTEX
  8
39
 10
1.208469
 20
0.758118
 30
0.000000
 42
1.000000
  0
VERTEX
  8
39
 10
1.209469
 20
0.758118
 30
0.000000
  0
SEQEND
  8
0
  0
POLYLINE
  8
39
 66
1
 10
0.000000
 20
0.000000
 30
0.000000
 40
0.002000
 41
0.002000
 70
0
  0
VERTEX
  8
39
 10
1.208969
 20
0.874102
 30
0.000000
  0
VERTEX
  8
39
 10
1.286370
 20
0.874102
 30
0.000000
  0
SEQEND
  8
0
  0
POLYLINE
  8
39
 66
1
 10
0.000000
 20
0.000000
 30
0.000000
 40
0.001000
 41
0.001000
 70
0
  0
VERTEX
  8
39
 10
1.286370
 20
0.873602
 30
0.000000
 42
1.000000
  0
VERTEX
  8
39
 10
1.286370
 20
0.874602
 30
0.000000
  0
SEQEND
  8
0
  0
POLYLINE
  8
39
 66
1
 10
0.000000
 20
0.000000
 30
0.000000
 40
0.001000
 41
0.001000
 70
0
  0
VERTEX
  8
39
 10
1.208969
 20
0.874602
 30
0.000000
 42
1.000000
  0
VERTEX
  8
39
 10
1.208969
 20
0.873602
 30
0.000000
  0
SEQEND
  8
0
  0
POLYLINE
  8
39
 66
1
 10
0.000000
 20
0.000000
 30
0.000000
 40
0.002000
 41
0.002000
 70
0
  0
VERTEX
  8
39
 10
1.415031
 20
0.873882
 30
0.000000
  0
VERTEX
  8
39
 10
1.415031
 20
0.757898
 30
0.000000
  0
SEQEND
  8
0
  0
POLYLINE
  8
39
 66
1
 10
0.000000
 20
0.000000
 30
0.000000
 40
0.001000
 41
0.001000
 70
0
  0
VERTEX
  8
39
 10
1.414531
 20
0.757898
 30
0.000000
 42
1.000000
  0
VERTEX
  8
39
 10
1.415531
 20
0.757898
 30
0.000000
  0
SEQEND
  8
0
  0
POLYLINE
  8
39
 66
1
 10
0.000000
 20
0.000000
 30
0.000000
 40
0.001000
 41
0.001000
 70
0
  0
VERTEX
  8
39
 10
1.415531
 20
0.873882
 30
0.000000
 42
1.000000
  0
VERTEX
  8
39
 10
1.414531
 20
0.873882
 30
0.000000
  0
SEQEND
  8
0
  0
POLYLINE
  8
39
 66
1
 10
0.000000
 20
0.000000
 30
0.000000
 40
0.002000
 41
0.002000
 70
0
  0
VERTEX
  8
39
 10
1.415031
 20
0.757898
 30
0.000000
  0
VERTEX
  8
39
 10
1.337630
 20
0.757898
 30
0.000000
  0
SEQEND
  8
0
  0
POLYLINE
  8
39
 66
1
 10
0.000000
 20
0.000000
 30
0.000000
 40
0.001000
 41
0.001000
 70
0
  0
VERTEX
  8
39
 10
1.337630
 20
0.758398
 30
0.000000
 42
1.000000
  0
VERTEX
  8
39
 10
1.337630
 20
0.757398
 30
0.000000
  0
SEQEND
  8
0
  0
POLYLINE
  8
39
 66
1
 10
0.000000
 20
0.000000
 30
0.000000
 40
0.001000
 41
0.001000
 70
0
  0
VERTEX
  8
39
 10
1.415031
 20
0.757398
 30
0.000000
 42
1.000000
  0
VERTEX
  8
39
 10
1.415031
 20
0.758398
 30
0.000000
  0
SEQEND
  8
0
  0
POLYLINE
  8
39
 66
1
 10
0.000000
 20
0.000000
 30
0.000000
 40
0.002000
 41
0.002000
 70
0
  0
VERTEX
  8
39
 10
1.337630
 20
0.757898
 30
0.000000
  0
VERTEX
  8
39
 10
1.337630
 20
0.873882
 30
0.000000
  0
SEQEND
  8
0
  0
POLYLINE
  8
39
 66
1
 10
0.000000
 20
0.000000
 30
0.000000
 40
0.001000
 41
0.001000
 70
0
  0
VERTEX
  8
39
 10
1.338130
 20
0.873882
 30
0.000000
 42
1.000000
  0
VERTEX
  8
39
 10
1.337130
 20
0.873882
 30
0.000000
  0
SEQEND
  8
0
  0
POLYLINE
  8
39
 66
1
 10
0.000000
 20
0.000000
 30
0.000000
 40
0.001000
 41
0.001000
 70
0
  0
VERTEX
  8
39
 10
1.337130
 20
0.757898
 30
0.000000
 42
1.000000
  0
VERTEX
  8
39
 10
1.338130
 20
0.757898
 30
0.000000
  0
SEQEND
  8
0
  0
POLYLINE
  8
39
 66
1
 10
0.000000
 20
0.000000
 30
0.000000
 40
0.002000
 41
0.002000
 70
0
  0
VERTEX
  8
39
 10
1.337630
 20
0.873882
 30
0.000000
  0
VERTEX
  8
39
 10
1.415031
 20
0.873882
 30
0.000000
  0
SEQEND
  8
0
  0
POLYLINE
  8
39
 66
1
 10
0.000000
 20
0.000000
 30
0.000000
 40
0.001000
 41
0.001000
 70
0
  0
VERTEX
  8
39
 10
1.415031
 20
0.873382
 30
0.000000
 42
1.000000
  0
VERTEX
  8
39
 10
1.415031
 20
0.874382
 30
0.000000
  0
SEQEND
  8
0
  0
POLYLINE
  8
39
 66
1
 10
0.000000
 20
0.000000
 30
0.000000
 40
0.001000
 41
0.001000
 70
0
  0
VERTEX
  8
39
 10
1.337630
 20
0.874382
 30
0.000000
 42
1.000000
  0
VERTEX
  8
39
 10
1.337630
 20
0.873382
 30
0.000000
  0
SEQEND
  8
0
  0
POLYLINE
  8
39
 66
1
 10
0.000000
 20
0.000000
 30
0.000000
 40
0.002000
 41
0.002000
 70
0
  0
VERTEX
  8
39
 10
1.537031
 20
0.871882
 30
0.000000
  0
VERTEX
  8
39
 10
1.537031
 20
0.755898
 30
0.000000
  0
SEQEND
  8
0
  0
POLYLINE
  8
39
 66
1
 10
0.000000
 20
0.000000
 30
0.000000
 40
0.001000
 41
0.001000
 70
0
  0
VERTEX
  8
39
 10
1.536531
 20
0.755898
 30
0.000000
 42
1.000000
  0
VERTEX
  8
39
 10
1.537531
 20
0.755898
 30
0.000000
  0
SEQEND
  8
0
  0
POLYLINE
  8
39
 66
1
 10
0.000000
 20
0.000000
 30
0.000000
 40
0.001000
 41
0.001000
 70
0
  0
VERTEX
  8
39
 10
1.537531
 20
0.871882
 30
0.000000
 42
1.000000
  0
VERTEX
  8
39
 10
1.536531
 20
0.871882
 30
0.000000
  0
SEQEND
  8
0
  0
POLYLINE
  8
39
 66
1
 10
0.000000
 20
0.000000
 30
0.000000
 40
0.002000
 41
0.002000
 70
0
  0
VERTEX
  8
39
 10
1.537031
 20
0.755898
 30
0.000000
  0
VERTEX
  8
39
 10
1.459630
 20
0.755898
 30
0.000000
  0
SEQEND
  8
0
  0
POLYLINE
  8
39
 66
1
 10
0.000000
 20
0.000000
 30
0.000000
 40
0.001000
 41
0.001000
 70
0
  0
VERTEX
  8
39
 10
1.459630
 20
0.756398
 30
0.000000
 42
1.000000
  0
VERTEX
  8
39
 10
1.459630
 20
0.755398
 30
0.000000
  0
SEQEND
  8
0
  0
POLYLINE
  8
39
 66
1
 10
0.000000
 20
0.000000
 30
0.000000
 40
0.001000
 41
0.001000
 70
0
  0
VERTEX
  8
39
 10
1.537031
 20
0.755398
 30
0.000000
 42
1.000000
  0
VERTEX
  8
39
 10
1.537031
 20
0.756398
 30
0.000000
  0
SEQEND
  8
0
  0
POLYLINE
  8
39
 66
1
 10
0.000000
 20
0.000000
 30
0.000000
 40
0.002000
 41
0.002000
 70
0
  0
VERTEX
  8
39
 10
1.459630
 20
0.755898
 30
0.000000
  0
VERTEX
  8
39
 10
1.459630
 20
0.871882
 30
0.000000
  0
SEQEND
  8
0
  0
POLYLINE
  8
39
 66
1
 10
0.000000
 20
0.000000
 30
0.000000
 40
0.001000
 41
0.001000
 70
0
  0
VERTEX
  8
39
 10
1.460130
 20
0.871882
 30
0.000000
 42
1.000000
  0
VERTEX
  8
39
 10
1.459130
 20
0.871882
 30
0.000000
  0
SEQEND
  8
0
  0
POLYLINE
  8
39
 66
1
 10
0.000000
 20
0.000000
 30
0.000000
 40
0.001000
 41
0.001000
 70
0
  0
VERTEX
  8
39
 10
1.459130
 20
0.755898
 30
0.000000
 42
1.000000
  0
VERTEX
  8
39
 10
1.460130
 20
0.755898
 30
0.000000
  0
SEQEND
  8
0
  0
POLYLINE
  8
39
 66
1
 10
0.000000
 20
0.000000
 30
0.000000
 40
0.002000
 41
0.002000
 70
0
  0
VERTEX
  8
39
 10
1.459630
 20
0.871882
 30
0.000000
  0
VERTEX
  8
39
 10
1.537031
 20
0.871882
 30
0.000000
  0
SEQEND
  8
0
  0
POLYLINE
  8
39
 66
1
 10
0.000000
 20
0.000000
 30
0.000000
 40
0.001000
 41
0.001000
 70
0
  0
VERTEX
  8
39
 10
1.537031
 20
0.871382
 30
0.000000
 42
1.000000
  0
VERTEX
  8
39
 10
1.537031
 20
0.872382
 30
0.000000
  0
SEQEND
  8
0
  0
POLYLINE
  8
39
 66
1
 10
0.000000
 20
0.000000
 30
0.000000
 40
0.001000
 41
0.001000
 70
0
  0
VERTEX
  8
39
 10
1.459630
 20
0.872382
 30
0.000000
 42
1.000000
  0
VERTEX
  8
39
 10
1.459630
 20
0.871382
 30
0.000000
  0
SEQEND
  8
0
  0
INSERT
  8
18
  2
ROUNDV
 10
1.440000
 20
0.440000
 30
0.000000
 41
0.040000
 42
0.040000
 43
1.000000
 50
0.000000
  0
INSERT
  8
18
  2
ROUNDV
 10
0.748000
 20
0.560000
 30
0.000000
 41
0.040000
 42
0.040000
 43
1.000000
 50
0.000000
  0
INSERT
  8
18
  2
ROUNDV
 10
0.440000
 20
0.840000
 30
0.000000
 41
0.040000
 42
0.040000
 43
1.000000
 50
0.000000
  0
INSERT
  8
18
  2
ROUNDV
 10
1.720000
 20
0.880000
 30
0.000000
 41
0.040000
 42
0.040000
 43
1.000000
 50
0.000000
  0
INSERT
  8
18
  2
ROUNDV
 10
0.472000
 20
0.976000
 30
0.000000
 41
0.040000
 42
0.040000
 43
1.000000
 50
0.000000
  0
INSERT
  8
18
  2
ROUNDV
 10
0.840000
 20
0.640000
 30
0.000000
 41
0.040000
 42
0.040000
 43
1.000000
 50
0.000000
  0
INSERT
  8
18
  2
ROUNDV
 10
1.520000
 20
0.440000
 30
0.000000
 41
0.040000
 42
0.040000
 43
1.000000
 50
0.000000
  0
INSERT
  8
18
  2
ROUNDV
 10
1.560000
 20
0.400000
 30
0.000000
 41
0.040000
 42
0.040000
 43
1.000000
 50
0.000000
  0
INSERT
  8
18
  2
ROUNDV
 10
0.720000
 20
0.280000
 30
0.000000
 41
0.040000
 42
0.040000
 43
1.000000
 50
0.000000
  0
INSERT
  8
18
  2
ROUNDV
 10
0.640000
 20
0.360000
 30
0.000000
 41
0.040000
 42
0.040000
 43
1.000000
 50
0.000000
  0
INSERT
  8
18
  2
ROUNDV
 10
0.560000
 20
0.280000
 30
0.000000
 41
0.040000
 42
0.040000
 43
1.000000
 50
0.000000
  0
INSERT
  8
18
  2
ROUNDV
 10
0.080000
 20
1.000000
 30
0.000000
 41
0.040000
 42
0.040000
 43
1.000000
 50
0.000000
  0
INSERT
  8
18
  2
ROUNDV
 10
0.280000
 20
1.000000
 30
0.000000
 41
0.040000
 42
0.040000
 43
1.000000
 50
0.000000
  0
INSERT
  8
18
  2
ROUNDV
 10
0.280000
 20
0.856000
 30
0.000000
 41
0.040000
 42
0.040000
 43
1.000000
 50
0.000000
  0
INSERT
  8
18
  2
ROUNDV
 10
0.284000
 20
0.700000
 30
0.000000
 41
0.040000
 42
0.040000
 43
1.000000
 50
0.000000
  0
INSERT
  8
18
  2
ROUNDV
 10
0.080000
 20
0.700000
 30
0.000000
 41
0.040000
 42
0.040000
 43
1.000000
 50
0.000000
  0
INSERT
  8
18
  2
ROUNDV
 10
0.080000
 20
0.860000
 30
0.000000
 41
0.040000
 42
0.040000
 43
1.000000
 50
0.000000
  0
INSERT
  8
18
  2
ROUNDV
 10
0.184000
 20
1.000000
 30
0.000000
 41
0.040000
 42
0.040000
 43
1.000000
 50
0.000000
  0
INSERT
  8
18
  2
ROUNDV
 10
0.184000
 20
0.860000
 30
0.000000
 41
0.040000
 42
0.040000
 43
1.000000
 50
0.000000
  0
INSERT
  8
18
  2
ROUNDV
 10
0.180000
 20
0.700000
 30
0.000000
 41
0.040000
 42
0.040000
 43
1.000000
 50
0.000000
  0
INSERT
  8
18
  2
ROUNDV
 10
1.424000
 20
0.728000
 30
0.000000
 41
0.040000
 42
0.040000
 43
1.000000
 50
0.000000
  0
INSERT
  8
18
  2
ROUNDV
 10
1.564000
 20
0.944000
 30
0.000000
 41
0.040000
 42
0.040000
 43
1.000000
 50
0.000000
  0
INSERT
  8
18
  2
ROUNDV
 10
0.652000
 20
0.908000
 30
0.000000
 41
0.040000
 42
0.040000
 43
1.000000
 50
0.000000
  0
ENDSEC
  0
EOF
