  0
SECTION
  2
HEADER
  9
$ACADVER
  1
AC1015
  9
$ACADMAINTVER
 70
     6
  9
$DWGCODEPAGE
  3
ANSI_1251
  9
$INSBASE
 10
0.0
 20
0.0
 30
0.0
  9
$EXTMIN
 10
0.0
 20
0.0
 30
0.0
  9
$EXTMAX
 10
67.6225347948
 20
107.0884904244
 30
0.0
  9
$LIMMIN
 10
0.0
 20
0.0
  9
$LIMMAX
 10
420.0
 20
297.0
  9
$ORTHOMODE
 70
     0
  9
$REGENMODE
 70
     1
  9
$FILLMODE
 70
     1
  9
$QTEXTMODE
 70
     0
  9
$MIRRTEXT
 70
     1
  9
$LTSCALE
 40
1.0
  9
$ATTMODE
 70
     1
  9
$TEXTSIZE
 40
4.0
  9
$TRACEWID
 40
1.0
  9
$TEXTSTYLE
  7
Standard
  9
$CLAYER
  8
0
  9
$CELTYPE
  6
ByLayer
  9
$CECOLOR
 62
   256
  9
$CELTSCALE
 40
1.0
  9
$DISPSILH
 70
     0
  9
$DIMSCALE
 40
1.0
  9
$DIMASZ
 40
6.0
  9
$DIMEXO
 40
1.0
  9
$DIMDLI
 40
3.75
  9
$DIMRND
 40
0.0
  9
$DIMDLE
 40
0.0
  9
$DIMEXE
 40
1.0
  9
$DIMTP
 40
0.0
  9
$DIMTM
 40
0.0
  9
$DIMTXT
 40
4.0
  9
$DIMCEN
 40
2.5
  9
$DIMTSZ
 40
0.0
  9
$DIMTOL
 70
     0
  9
$DIMLIM
 70
     0
  9
$DIMTIH
 70
     1
  9
$DIMTOH
 70
     1
  9
$DIMSE1
 70
     0
  9
$DIMSE2
 70
     0
  9
$DIMTAD
 70
     1
  9
$DIMZIN
 70
     0
  9
$DIMBLK
  1

  9
$DIMASO
 70
     1
  9
$DIMSHO
 70
     1
  9
$DIMPOST
  1

  9
$DIMAPOST
  1

  9
$DIMALT
 70
     0
  9
$DIMALTD
 70
     3
  9
$DIMALTF
 40
0.0393700787
  9
$DIMLFAC
 40
1.0
  9
$DIMTOFL
 70
     1
  9
$DIMTVP
 40
0.0
  9
$DIMTIX
 70
     0
  9
$DIMSOXD
 70
     0
  9
$DIMSAH
 70
     0
  9
$DIMBLK1
  1

  9
$DIMBLK2
  1

  9
$DIMSTYLE
  2
ISO-25
  9
$DIMCLRD
 70
     0
  9
$DIMCLRE
 70
     0
  9
$DIMCLRT
 70
     0
  9
$DIMTFAC
 40
1.0
  9
$DIMGAP
 40
3.0
  9
$DIMJUST
 70
     0
  9
$DIMSD1
 70
     0
  9
$DIMSD2
 70
     0
  9
$DIMTOLJ
 70
     0
  9
$DIMTZIN
 70
     0
  9
$DIMALTZ
 70
     0
  9
$DIMALTTZ
 70
     0
  9
$DIMUPT
 70
     0
  9
$DIMDEC
 70
     2
  9
$DIMTDEC
 70
     4
  9
$DIMALTU
 70
     2
  9
$DIMALTTD
 70
     3
  9
$DIMTXSTY
  7
Standard
  9
$DIMAUNIT
 70
     0
  9
$DIMADEC
 70
     2
  9
$DIMALTRND
 40
0.0
  9
$DIMAZIN
 70
     0
  9
$DIMDSEP
 70
    44
  9
$DIMATFIT
 70
     3
  9
$DIMFRAC
 70
     0
  9
$DIMLDRBLK
  1

  9
$DIMLUNIT
 70
     2
  9
$DIMLWD
 70
    -2
  9
$DIMLWE
 70
    -2
  9
$DIMTMOVE
 70
     0
  9
$LUNITS
 70
     2
  9
$LUPREC
 70
     2
  9
$SKETCHINC
 40
1.0
  9
$FILLETRAD
 40
10.0
  9
$AUNITS
 70
     0
  9
$AUPREC
 70
     2
  9
$MENU
  1
.
  9
$ELEVATION
 40
0.0
  9
$PELEVATION
 40
0.0
  9
$THICKNESS
 40
0.0
  9
$LIMCHECK
 70
     0
  9
$CHAMFERA
 40
10.0
  9
$CHAMFERB
 40
10.0
  9
$CHAMFERC
 40
20.0
  9
$CHAMFERD
 40
0.0
  9
$SKPOLY
 70
     0
  9
$TDCREATE
 40
2457089.985715359
  9
$TDUCREATE
 40
2457089.860715359
  9
$TDUPDATE
 40
2457089.986043484
  9
$TDUUPDATE
 40
2457089.861043484
  9
$TDINDWG
 40
0.0000000116
  9
$TDUSRTIMER
 40
0.0000000116
  9
$USRTIMER
 70
     1
  9
$ANGBASE
 50
0.0
  9
$ANGDIR
 70
     0
  9
$PDMODE
 70
     0
  9
$PDSIZE
 40
-1.0
  9
$PLINEWID
 40
0.0
  9
$SPLFRAME
 70
     0
  9
$SPLINETYPE
 70
     6
  9
$SPLINESEGS
 70
     8
  9
$HANDSEED
  5
214
  9
$SURFTAB1
 70
     6
  9
$SURFTAB2
 70
     6
  9
$SURFTYPE
 70
     6
  9
$SURFU
 70
     6
  9
$SURFV
 70
     6
  9
$UCSBASE
  2

  9
$UCSNAME
  2

  9
$UCSORG
 10
0.0
 20
0.0
 30
0.0
  9
$UCSXDIR
 10
1.0
 20
0.0
 30
0.0
  9
$UCSYDIR
 10
0.0
 20
1.0
 30
0.0
  9
$UCSORTHOREF
  2

  9
$UCSORTHOVIEW
 70
     0
  9
$UCSORGTOP
 10
0.0
 20
0.0
 30
0.0
  9
$UCSORGBOTTOM
 10
0.0
 20
0.0
 30
0.0
  9
$UCSORGLEFT
 10
0.0
 20
0.0
 30
0.0
  9
$UCSORGRIGHT
 10
0.0
 20
0.0
 30
0.0
  9
$UCSORGFRONT
 10
0.0
 20
0.0
 30
0.0
  9
$UCSORGBACK
 10
0.0
 20
0.0
 30
0.0
  9
$PUCSBASE
  2

  9
$PUCSNAME
  2

  9
$PUCSORG
 10
0.0
 20
0.0
 30
0.0
  9
$PUCSXDIR
 10
1.0
 20
0.0
 30
0.0
  9
$PUCSYDIR
 10
0.0
 20
1.0
 30
0.0
  9
$PUCSORTHOREF
  2

  9
$PUCSORTHOVIEW
 70
     0
  9
$PUCSORGTOP
 10
0.0
 20
0.0
 30
0.0
  9
$PUCSORGBOTTOM
 10
0.0
 20
0.0
 30
0.0
  9
$PUCSORGLEFT
 10
0.0
 20
0.0
 30
0.0
  9
$PUCSORGRIGHT
 10
0.0
 20
0.0
 30
0.0
  9
$PUCSORGFRONT
 10
0.0
 20
0.0
 30
0.0
  9
$PUCSORGBACK
 10
0.0
 20
0.0
 30
0.0
  9
$USERI1
 70
     0
  9
$USERI2
 70
     0
  9
$USERI3
 70
     0
  9
$USERI4
 70
     0
  9
$USERI5
 70
     0
  9
$USERR1
 40
0.0
  9
$USERR2
 40
0.0
  9
$USERR3
 40
0.0
  9
$USERR4
 40
0.0
  9
$USERR5
 40
0.0
  9
$WORLDVIEW
 70
     1
  9
$SHADEDGE
 70
     3
  9
$SHADEDIF
 70
    70
  9
$TILEMODE
 70
     1
  9
$MAXACTVP
 70
    64
  9
$PINSBASE
 10
0.0
 20
0.0
 30
0.0
  9
$PLIMCHECK
 70
     0
  9
$PEXTMIN
 10
1.0000000000E+20
 20
1.0000000000E+20
 30
1.0000000000E+20
  9
$PEXTMAX
 10
-1.0000000000E+20
 20
-1.0000000000E+20
 30
-1.0000000000E+20
  9
$PLIMMIN
 10
0.0
 20
0.0
  9
$PLIMMAX
 10
420.0
 20
297.0
  9
$UNITMODE
 70
     0
  9
$VISRETAIN
 70
     1
  9
$PLINEGEN
 70
     0
  9
$PSLTSCALE
 70
     1
  9
$TREEDEPTH
 70
  3020
  9
$CMLSTYLE
  2
Standard
  9
$CMLJUST
 70
     0
  9
$CMLSCALE
 40
20.0
  9
$PROXYGRAPHICS
 70
     1
  9
$MEASUREMENT
 70
     1
  9
$CELWEIGHT
370
    -1
  9
$ENDCAPS
280
     0
  9
$JOINSTYLE
280
     0
  9
$LWDISPLAY
290
     1
  9
$INSUNITS
 70
     4
  9
$HYPERLINKBASE
  1

  9
$STYLESHEET
  1

  9
$XEDIT
290
     1
  9
$CEPSNTYPE
380
     0
  9
$PSTYLEMODE
290
     1
  9
$FINGERPRINTGUID
  2
{CDFBF00A-1ACD-4263-961D-1F96E2700FC8}
  9
$VERSIONGUID
  2
{FAEB1C32-E019-11D5-929B-00C0DF256EC4}
  9
$EXTNAMES
290
     1
  9
$PSVPSCALE
 40
0.0
  9
$OLESTARTUP
290
     0
  0
ENDSEC
  0
SECTION
  2
CLASSES
  0
CLASS
  1
ACDBDICTIONARYWDFLT
  2
AcDbDictionaryWithDefault
  3
ObjectDBX Classes
 90
        0
280
     0
281
     0
  0
CLASS
  1
VISUALSTYLE
  2
AcDbVisualStyle
  3
ObjectDBX Classes
 90
     4095
280
     0
281
     0
  0
CLASS
  1
MATERIAL
  2
AcDbMaterial
  3
ObjectDBX Classes
 90
     1153
280
     0
281
     0
  0
CLASS
  1
SCALE
  2
AcDbScale
  3
ObjectDBX Classes
 90
     1153
280
     0
281
     0
  0
CLASS
  1
DICTIONARYVAR
  2
AcDbDictionaryVar
  3
ObjectDBX Classes
 90
        0
280
     0
281
     0
  0
CLASS
  1
ACDBPLACEHOLDER
  2
AcDbPlaceHolder
  3
ObjectDBX Classes
 90
        0
280
     0
281
     0
  0
CLASS
  1
LAYOUT
  2
AcDbLayout
  3
ObjectDBX Classes
 90
        0
280
     0
281
     0
  0
ENDSEC
  0
SECTION
  2
TABLES
  0
TABLE
  2
VPORT
  5
8
330
0
100
AcDbSymbolTable
 70
     1
  0
VPORT
  5
29
330
8
100
AcDbSymbolTableRecord
100
AcDbViewportTableRecord
  2
*Active
 70
     0
 10
0.0
 20
0.0
 11
1.0
 21
1.0
 12
33.8112673974
 22
53.5442452122
 13
0.0
 23
0.0
 14
10.0
 24
10.0
 15
10.0
 25
10.0
 16
0.0
 26
0.0
 36
1.0
 17
0.0
 27
0.0
 37
0.0
 40
109.2302602329
 41
0.6314640773
 42
50.0
 43
0.0
 44
0.0
 50
0.0
 51
0.0
 71
     0
 72
   100
 73
     1
 74
     3
 75
     0
 76
     0
 77
     0
 78
     0
281
     0
 65
     1
110
0.0
120
0.0
130
0.0
111
1.0
121
0.0
131
0.0
112
0.0
122
1.0
132
0.0
 79
     0
146
0.0
  0
ENDTAB
  0
TABLE
  2
LTYPE
  5
5
330
0
100
AcDbSymbolTable
 70
     6
  0
LTYPE
  5
14
330
5
100
AcDbSymbolTableRecord
100
AcDbLinetypeTableRecord
  2
ByBlock
 70
     0
  3

 72
    65
 73
     0
 40
0.0
  0
LTYPE
  5
15
330
5
100
AcDbSymbolTableRecord
100
AcDbLinetypeTableRecord
  2
ByLayer
 70
     0
  3

 72
    65
 73
     0
 40
0.0
  0
LTYPE
  5
16
330
5
100
AcDbSymbolTableRecord
100
AcDbLinetypeTableRecord
  2
Continuous
 70
     0
  3
Solid line
 72
    65
 73
     0
 40
0.0
  0
LTYPE
  5
3F
330
5
100
AcDbSymbolTableRecord
100
AcDbLinetypeTableRecord
  2
HIDDEN
 70
     0
  3
Hidden __ __ __ __ __ __ __ __ __ __ __ __ __ __
 72
    65
 73
     2
 40
1.905
 49
1.27
 74
     0
 49
-0.635
 74
     0
  0
LTYPE
  5
40
330
5
100
AcDbSymbolTableRecord
100
AcDbLinetypeTableRecord
  2
PHANTOM
 70
     0
  3
Phantom ______  __  __  ______  __  __  ______
 72
    65
 73
     6
 40
12.7
 49
6.35
 74
     0
 49
-1.27
 74
     0
 49
1.27
 74
     0
 49
-1.27
 74
     0
 49
1.27
 74
     0
 49
-1.27
 74
     0
  0
LTYPE
  5
41
330
5
100
AcDbSymbolTableRecord
100
AcDbLinetypeTableRecord
  2
CENTER
 70
     0
  3
Center ____ _ ____ _ ____ _ ____ _ ____ _ ____
 72
    65
 73
     4
 40
10.16
 49
6.35
 74
     0
 49
-1.27
 74
     0
 49
1.27
 74
     0
 49
-1.27
 74
     0
  0
LTYPE
  5
42
330
5
100
AcDbSymbolTableRecord
100
AcDbLinetypeTableRecord
  2
CENTERX2
 70
     0
  3
Center (2x) ________  __  ________  __  _____
 72
    65
 73
     4
 40
20.32
 49
12.7
 74
     0
 49
-2.54
 74
     0
 49
2.54
 74
     0
 49
-2.54
 74
     0
  0
LTYPE
  5
43
330
5
100
AcDbSymbolTableRecord
100
AcDbLinetypeTableRecord
  2
DOT2
 70
     0
  3
Dot (.5x) ........................................
 72
    65
 73
     2
 40
0.635
 49
0.0
 74
     0
 49
-0.635
 74
     0
  0
ENDTAB
  0
TABLE
  2
LAYER
  5
2
330
0
100
AcDbSymbolTable
 70
     1
  0
LAYER
  5
10
330
2
100
AcDbSymbolTableRecord
100
AcDbLayerTableRecord
  2
0
 70
     0
 62
     7
  6
Continuous
370
    -3
390
F
  0
ENDTAB
  0
TABLE
  2
STYLE
  5
3
330
0
100
AcDbSymbolTable
 70
     1
  0
STYLE
  5
11
330
3
100
AcDbSymbolTableRecord
100
AcDbTextStyleTableRecord
  2
Standard
 70
     0
 40
0.0
 41
1.0
 50
0.0
 71
     0
 42
4.0
  3
txt
  4

  0
ENDTAB
  0
TABLE
  2
VIEW
  5
6
330
0
100
AcDbSymbolTable
 70
     0
  0
ENDTAB
  0
TABLE
  2
UCS
  5
7
330
0
100
AcDbSymbolTable
 70
     0
  0
ENDTAB
  0
TABLE
  2
APPID
  5
9
330
0
100
AcDbSymbolTable
 70
     1
  0
APPID
  5
12
330
9
100
AcDbSymbolTableRecord
100
AcDbRegAppTableRecord
  2
ACAD
 70
     0
  0
ENDTAB
  0
TABLE
  2
DIMSTYLE
  5
A
330
0
100
AcDbSymbolTable
 70
     1
100
AcDbDimStyleTable
  0
DIMSTYLE
105
27
330
A
100
AcDbSymbolTableRecord
100
AcDbDimStyleTableRecord
  2
ISO-25
 70
     0
 41
2.5
 42
0.625
 43
3.75
 44
1.25
 73
     0
 74
     0
 77
     1
 78
     8
140
2.5
141
2.5
143
0.0393700787
147
0.625
171
     3
172
     1
178
     0
271
     2
272
     2
274
     3
278
    44
283
     0
284
     8
340
11
  0
ENDTAB
  0
TABLE
  2
BLOCK_RECORD
  5
1
330
0
100
AcDbSymbolTable
 70
     1
  0
BLOCK_RECORD
  5
1F
330
1
100
AcDbSymbolTableRecord
100
AcDbBlockTableRecord
  2
*Model_Space
340
22
  0
BLOCK_RECORD
  5
1B
330
1
100
AcDbSymbolTableRecord
100
AcDbBlockTableRecord
  2
*Paper_Space
340
1E
  0
BLOCK_RECORD
  5
23
330
1
100
AcDbSymbolTableRecord
100
AcDbBlockTableRecord
  2
*Paper_Space0
340
26
  0
ENDTAB
  0
ENDSEC
  0
SECTION
  2
BLOCKS
  0
BLOCK
  5
20
330
1F
100
AcDbEntity
  8
0
100
AcDbBlockBegin
  2
*Model_Space
 70
     0
 10
0.0
 20
0.0
 30
0.0
  3
*Model_Space
  1

  0
ENDBLK
  5
21
330
1F
100
AcDbEntity
  8
0
100
AcDbBlockEnd
  0
BLOCK
  5
1C
330
1B
100
AcDbEntity
 67
     1
  8
0
100
AcDbBlockBegin
  2
*Paper_Space
 70
     0
 10
0.0
 20
0.0
 30
0.0
  3
*Paper_Space
  1

  0
ENDBLK
  5
1D
330
1B
100
AcDbEntity
 67
     1
  8
0
100
AcDbBlockEnd
  0
BLOCK
  5
24
330
23
100
AcDbEntity
  8
0
100
AcDbBlockBegin
  2
*Paper_Space0
 70
     0
 10
0.0
 20
0.0
 30
0.0
  3
*Paper_Space0
  1

  0
ENDBLK
  5
25
330
23
100
AcDbEntity
  8
0
100
AcDbBlockEnd
  0
ENDSEC
  0
SECTION
  2
ENTITIES
  0
ARC
  5
62
330
1F
100
AcDbEntity
  8
0
  6
Continuous
 62
     7
100
AcDbCircle
 10
33.8112673974
 20
-40.9115095756
 30
0.0
 40
51.10000019034495
100
AcDbArc
 50
58.2432058459
 51
121.7567941541
  0
ARC
  5
63
330
1F
100
AcDbEntity
  8
0
  6
Continuous
 62
     7
100
AcDbCircle
 10
57.5480629492
 20
-2.5634385146
 30
0.0
 40
6.000000000000386
100
AcDbArc
 50
38.1818800462
 51
58.2432058459
  0
ARC
  5
64
330
1F
100
AcDbEntity
  8
0
  6
Continuous
 62
     7
100
AcDbCircle
 10
64.6225347948
 20
3.0
 30
0.0
 40
3.000000000001306
100
AcDbArc
 50
218.1818800463
 51
35.7975803626
  0
ARC
  5
65
330
1F
100
AcDbEntity
  8
0
  6
Continuous
 62
     7
100
AcDbCircle
 10
71.9227781087
 20
8.2634120473
 30
0.0
 40
5.999836626946347
100
AcDbArc
 50
197.1882076247
 51
215.788124288
  0
ARC
  5
66
330
1F
100
AcDbEntity
  8
0
  6
Continuous
 62
     7
100
AcDbCircle
 10
64.7112673974
 20
99.624620966
 30
0.0
 40
6.000000000000171
100
AcDbArc
 50
144.2687080201
 51
180.0
  0
ARC
  5
67
330
1F
100
AcDbEntity
  8
0
  6
Continuous
 62
     7
100
AcDbCircle
 10
57.8112673974
 20
104.5884904244
 30
0.0
 40
2.500000000001271
100
AcDbArc
 50
324.2687080201
 51
125.7312919799
  0
ARC
  5
68
330
1F
100
AcDbEntity
  8
0
  6
Continuous
 62
     7
100
AcDbCircle
 10
52.847397939
 20
111.4884904244
 30
0.0
 40
6.000000000000114
100
AcDbArc
 50
270.0
 51
305.7312919799
  0
ARC
  5
69
330
1F
100
AcDbEntity
  8
0
  6
Continuous
 62
     7
100
AcDbCircle
 10
14.7751368558
 20
111.4884904244
 30
0.0
 40
6.000000000000057
100
AcDbArc
 50
234.2687080201
 51
270.0
  0
ARC
  5
6A
330
1F
100
AcDbEntity
  8
0
  6
Continuous
 62
     7
100
AcDbCircle
 10
9.8112673974
 20
104.5884904244
 30
0.0
 40
2.500000000001445
100
AcDbArc
 50
54.2687080201
 51
215.73129198
  0
ARC
  5
6B
330
1F
100
AcDbEntity
  8
0
  6
Continuous
 62
     7
100
AcDbCircle
 10
2.9112673974
 20
99.624620966
 30
0.0
 40
5.999999999999826
100
AcDbArc
 50
0.0
 51
35.73129198
  0
ARC
  5
6C
330
1F
100
AcDbEntity
  8
0
  6
Continuous
 62
     7
100
AcDbCircle
 10
-4.3004922332
 20
8.2630995881
 30
0.0
 40
5.999855804603663
100
AcDbArc
 50
324.2140480627
 51
342.8138233418
  0
ARC
  5
6D
330
1F
100
AcDbEntity
  8
0
  6
Continuous
 62
     7
100
AcDbCircle
 10
3.0
 20
3.0
 30
0.0
 40
3.000000000001267
100
AcDbArc
 50
144.2056959067
 51
321.8181199538
  0
ARC
  5
6E
330
1F
100
AcDbEntity
  8
0
  6
Continuous
 62
     7
100
AcDbCircle
 10
10.0744718456
 20
-2.5634385146
 30
0.0
 40
5.999999999999926
100
AcDbArc
 50
121.7567941541
 51
141.8181199537
  0
ARC
  5
7B
330
1F
100
AcDbEntity
  8
0
  6
Continuous
 62
     7
100
AcDbCircle
 10
33.8112673974
 20
-40.9115095756
 30
0.0
 40
51.10000019034495
100
AcDbArc
 50
58.2432058459
 51
121.7567941541
  0
ARC
  5
7C
330
1F
100
AcDbEntity
  8
0
  6
Continuous
 62
     7
100
AcDbCircle
 10
57.5480629492
 20
-2.5634385146
 30
0.0
 40
6.000000000000386
100
AcDbArc
 50
38.1818800462
 51
58.2432058459
  0
ARC
  5
7D
330
1F
100
AcDbEntity
  8
0
  6
Continuous
 62
     7
100
AcDbCircle
 10
64.6225347948
 20
3.0
 30
0.0
 40
3.000000000001306
100
AcDbArc
 50
218.1818800463
 51
35.7975803626
  0
ARC
  5
7E
330
1F
100
AcDbEntity
  8
0
  6
Continuous
 62
     7
100
AcDbCircle
 10
71.9227781087
 20
8.2634120473
 30
0.0
 40
5.999836626946347
100
AcDbArc
 50
197.1882076247
 51
215.788124288
  0
ARC
  5
7F
330
1F
100
AcDbEntity
  8
0
  6
Continuous
 62
     7
100
AcDbCircle
 10
64.7112673974
 20
99.624620966
 30
0.0
 40
6.000000000000171
100
AcDbArc
 50
144.2687080201
 51
180.0
  0
ARC
  5
80
330
1F
100
AcDbEntity
  8
0
  6
Continuous
 62
     7
100
AcDbCircle
 10
57.8112673974
 20
104.5884904244
 30
0.0
 40
2.500000000001271
100
AcDbArc
 50
324.2687080201
 51
125.7312919799
  0
ARC
  5
81
330
1F
100
AcDbEntity
  8
0
  6
Continuous
 62
     7
100
AcDbCircle
 10
52.847397939
 20
111.4884904244
 30
0.0
 40
6.000000000000114
100
AcDbArc
 50
270.0
 51
305.7312919799
  0
ARC
  5
82
330
1F
100
AcDbEntity
  8
0
  6
Continuous
 62
     7
100
AcDbCircle
 10
14.7751368558
 20
111.4884904244
 30
0.0
 40
6.000000000000057
100
AcDbArc
 50
234.2687080201
 51
270.0
  0
ARC
  5
83
330
1F
100
AcDbEntity
  8
0
  6
Continuous
 62
     7
100
AcDbCircle
 10
9.8112673974
 20
104.5884904244
 30
0.0
 40
2.500000000001445
100
AcDbArc
 50
54.2687080201
 51
215.73129198
  0
ARC
  5
84
330
1F
100
AcDbEntity
  8
0
  6
Continuous
 62
     7
100
AcDbCircle
 10
2.9112673974
 20
99.624620966
 30
0.0
 40
5.999999999999826
100
AcDbArc
 50
0.0
 51
35.73129198
  0
ARC
  5
85
330
1F
100
AcDbEntity
  8
0
  6
Continuous
 62
     7
100
AcDbCircle
 10
-4.3004922332
 20
8.2630995881
 30
0.0
 40
5.999855804603663
100
AcDbArc
 50
324.2140480627
 51
342.8138233418
  0
ARC
  5
86
330
1F
100
AcDbEntity
  8
0
  6
Continuous
 62
     7
100
AcDbCircle
 10
3.0
 20
3.0
 30
0.0
 40
3.000000000001267
100
AcDbArc
 50
144.2056959067
 51
321.8181199538
  0
ARC
  5
87
330
1F
100
AcDbEntity
  8
0
  6
Continuous
 62
     7
100
AcDbCircle
 10
10.0744718456
 20
-2.5634385146
 30
0.0
 40
5.999999999999926
100
AcDbArc
 50
121.7567941541
 51
141.8181199537
  0
CIRCLE
  5
88
330
1F
100
AcDbEntity
  8
0
  6
Continuous
 62
     7
100
AcDbCircle
 10
13.6392673974
 20
41.1864906147
 30
0.0
 40
0.5999999999999963
  0
CIRCLE
  5
89
330
1F
100
AcDbEntity
  8
0
  6
Continuous
 62
     7
100
AcDbCircle
 10
13.6392673974
 20
43.7264906147
 30
0.0
 40
0.5999999999999963
  0
CIRCLE
  5
8A
330
1F
100
AcDbEntity
  8
0
  6
Continuous
 62
     7
100
AcDbCircle
 10
54.2792673974
 20
37.1224906147
 30
0.0
 40
0.5999999999999942
  0
CIRCLE
  5
8B
330
1F
100
AcDbEntity
  8
0
  6
Continuous
 62
     7
100
AcDbCircle
 10
54.2792673974
 20
39.6624906147
 30
0.0
 40
0.5999999999999895
  0
LINE
  5
8C
330
1F
100
AcDbEntity
  8
0
  6
CENTERX2
 62
     7
100
AcDbLine
 10
3.0
 20
0.0
 30
0.0
 11
0.0
 21
0.0
 31
0.0
  0
LINE
  5
10F
330
1F
100
AcDbEntity
  8
0
  6
Continuous
 62
     7
100
AcDbLine
 10
58.7112673974
 20
49.0884904244
 30
0.0
 11
58.7112673974
 21
99.624620966
 31
0.0
  0
LINE
  5
110
330
1F
100
AcDbEntity
  8
0
  6
Continuous
 62
     7
100
AcDbLine
 10
52.847397939
 20
105.4884904244
 30
0.0
 11
14.7751368558
 21
105.4884904244
 31
0.0
  0
LINE
  5
111
330
1F
100
AcDbEntity
  8
0
  6
Continuous
 62
     7
100
AcDbLine
 10
8.9112673974
 20
99.624620966
 30
0.0
 11
8.9112673974
 21
49.0884904244
 31
0.0
  0
LINE
  5
16F
330
1F
100
AcDbEntity
  8
0
  6
Continuous
 62
     7
100
AcDbLine
 10
13.1362673974
 20
12.6984904244
 30
0.0
 11
13.1362673974
 21
11.7984907585
 31
0.0
  0
LINE
  5
170
330
1F
100
AcDbEntity
  8
0
  6
Continuous
 62
     7
100
AcDbLine
 10
13.3862673974
 20
12.6984904244
 30
0.0
 11
13.1362673974
 21
12.6984904244
 31
0.0
  0
LINE
  5
171
330
1F
100
AcDbEntity
  8
0
  6
Continuous
 62
     7
100
AcDbLine
 10
13.3862673974
 20
11.7984907585
 30
0.0
 11
13.3862673974
 21
12.6984904244
 31
0.0
  0
LINE
  5
172
330
1F
100
AcDbEntity
  8
0
  6
Continuous
 62
     7
100
AcDbLine
 10
13.1362673974
 20
11.7984907585
 30
0.0
 11
13.3862673974
 21
11.7984907585
 31
0.0
  0
LINE
  5
173
330
1F
100
AcDbEntity
  8
0
  6
Continuous
 62
     7
100
AcDbLine
 10
12.4862673974
 20
12.6984904244
 30
0.0
 11
12.4862673974
 21
11.7984907585
 31
0.0
  0
LINE
  5
174
330
1F
100
AcDbEntity
  8
0
  6
Continuous
 62
     7
100
AcDbLine
 10
12.7362673974
 20
12.6984904244
 30
0.0
 11
12.4862673974
 21
12.6984904244
 31
0.0
  0
LINE
  5
175
330
1F
100
AcDbEntity
  8
0
  6
Continuous
 62
     7
100
AcDbLine
 10
12.7362673974
 20
11.7984907585
 30
0.0
 11
12.7362673974
 21
12.6984904244
 31
0.0
  0
LINE
  5
176
330
1F
100
AcDbEntity
  8
0
  6
Continuous
 62
     7
100
AcDbLine
 10
12.4862673974
 20
11.7984907585
 30
0.0
 11
12.7362673974
 21
11.7984907585
 31
0.0
  0
LINE
  5
177
330
1F
100
AcDbEntity
  8
0
  6
Continuous
 62
     7
100
AcDbLine
 10
15.0862673974
 20
12.6984904244
 30
0.0
 11
15.0862673974
 21
11.7984907585
 31
0.0
  0
LINE
  5
178
330
1F
100
AcDbEntity
  8
0
  6
Continuous
 62
     7
100
AcDbLine
 10
15.3362673974
 20
12.6984904244
 30
0.0
 11
15.0862673974
 21
12.6984904244
 31
0.0
  0
LINE
  5
179
330
1F
100
AcDbEntity
  8
0
  6
Continuous
 62
     7
100
AcDbLine
 10
15.3362673974
 20
11.7984907585
 30
0.0
 11
15.3362673974
 21
12.6984904244
 31
0.0
  0
LINE
  5
17A
330
1F
100
AcDbEntity
  8
0
  6
Continuous
 62
     7
100
AcDbLine
 10
15.0862673974
 20
11.7984907585
 30
0.0
 11
15.3362673974
 21
11.7984907585
 31
0.0
  0
LINE
  5
17B
330
1F
100
AcDbEntity
  8
0
  6
Continuous
 62
     7
100
AcDbLine
 10
14.6862673974
 20
11.7984907585
 30
0.0
 11
14.6862673974
 21
12.6984904244
 31
0.0
  0
LINE
  5
17C
330
1F
100
AcDbEntity
  8
0
  6
Continuous
 62
     7
100
AcDbLine
 10
14.4362673974
 20
11.7984907585
 30
0.0
 11
14.6862673974
 21
11.7984907585
 31
0.0
  0
LINE
  5
17D
330
1F
100
AcDbEntity
  8
0
  6
Continuous
 62
     7
100
AcDbLine
 10
14.4362673974
 20
12.6984904244
 30
0.0
 11
14.4362673974
 21
11.7984907585
 31
0.0
  0
LINE
  5
17E
330
1F
100
AcDbEntity
  8
0
  6
Continuous
 62
     7
100
AcDbLine
 10
14.6862673974
 20
12.6984904244
 30
0.0
 11
14.4362673974
 21
12.6984904244
 31
0.0
  0
LINE
  5
17F
330
1F
100
AcDbEntity
  8
0
  6
Continuous
 62
     7
100
AcDbLine
 10
14.0362673974
 20
12.6984904244
 30
0.0
 11
13.7862673974
 21
12.6984904244
 31
0.0
  0
LINE
  5
180
330
1F
100
AcDbEntity
  8
0
  6
Continuous
 62
     7
100
AcDbLine
 10
13.7862673974
 20
12.6984904244
 30
0.0
 11
13.7862673974
 21
11.7984907585
 31
0.0
  0
LINE
  5
181
330
1F
100
AcDbEntity
  8
0
  6
Continuous
 62
     7
100
AcDbLine
 10
13.7862673974
 20
11.7984907585
 30
0.0
 11
14.0362673974
 21
11.7984907585
 31
0.0
  0
LINE
  5
182
330
1F
100
AcDbEntity
  8
0
  6
Continuous
 62
     7
100
AcDbLine
 10
14.0362673974
 20
11.7984907585
 30
0.0
 11
14.0362673974
 21
12.6984904244
 31
0.0
  0
LINE
  5
183
330
1F
100
AcDbEntity
  8
0
  6
Continuous
 62
     7
100
AcDbLine
 10
16.3112673974
 20
12.2384904244
 30
0.0
 11
16.3112673974
 21
11.9384904244
 31
0.0
  0
LINE
  5
184
330
1F
100
AcDbEntity
  8
0
  6
Continuous
 62
     7
100
AcDbLine
 10
17.1112673974
 20
12.2384904244
 30
0.0
 11
16.3112673974
 21
12.2384904244
 31
0.0
  0
LINE
  5
185
330
1F
100
AcDbEntity
  8
0
  6
Continuous
 62
     7
100
AcDbLine
 10
17.1112673974
 20
11.9384904244
 30
0.0
 11
17.1112673974
 21
12.2384904244
 31
0.0
  0
LINE
  5
186
330
1F
100
AcDbEntity
  8
0
  6
Continuous
 62
     7
100
AcDbLine
 10
16.3112673974
 20
11.9384904244
 30
0.0
 11
17.1112673974
 21
11.9384904244
 31
0.0
  0
LINE
  5
187
330
1F
100
AcDbEntity
  8
0
  6
Continuous
 62
     7
100
AcDbLine
 10
13.3112673974
 20
14.3884904244
 30
0.0
 11
13.3112673974
 21
14.0884904244
 31
0.0
  0
LINE
  5
188
330
1F
100
AcDbEntity
  8
0
  6
Continuous
 62
     7
100
AcDbLine
 10
13.3112673974
 20
14.0884904244
 30
0.0
 11
14.5112673974
 21
14.0884904244
 31
0.0
  0
LINE
  5
189
330
1F
100
AcDbEntity
  8
0
  6
Continuous
 62
     7
100
AcDbLine
 10
14.5112673974
 20
14.0884904244
 30
0.0
 11
14.5112673974
 21
14.3884904244
 31
0.0
  0
LINE
  5
18A
330
1F
100
AcDbEntity
  8
0
  6
Continuous
 62
     7
100
AcDbLine
 10
14.5112673974
 20
14.3884904244
 30
0.0
 11
13.3112673974
 21
14.3884904244
 31
0.0
  0
LINE
  5
18B
330
1F
100
AcDbEntity
  8
0
  6
Continuous
 62
     7
100
AcDbLine
 10
11.5112673974
 20
11.9384904244
 30
0.0
 11
11.5112673974
 21
12.2384904244
 31
0.0
  0
LINE
  5
18C
330
1F
100
AcDbEntity
  8
0
  6
Continuous
 62
     7
100
AcDbLine
 10
10.7112673974
 20
11.9384904244
 30
0.0
 11
11.5112673974
 21
11.9384904244
 31
0.0
  0
LINE
  5
18D
330
1F
100
AcDbEntity
  8
0
  6
Continuous
 62
     7
100
AcDbLine
 10
10.7112673974
 20
12.2384904244
 30
0.0
 11
10.7112673974
 21
11.9384904244
 31
0.0
  0
LINE
  5
18E
330
1F
100
AcDbEntity
  8
0
  6
Continuous
 62
     7
100
AcDbLine
 10
11.5112673974
 20
12.2384904244
 30
0.0
 11
10.7112673974
 21
12.2384904244
 31
0.0
  0
LINE
  5
18F
330
1F
100
AcDbEntity
  8
0
  6
Continuous
 62
     7
100
AcDbLine
 10
58.7112673974
 20
49.0884904244
 30
0.0
 11
58.7112673974
 21
99.624620966
 31
0.0
  0
LINE
  5
190
330
1F
100
AcDbEntity
  8
0
  6
Continuous
 62
     7
100
AcDbLine
 10
52.847397939
 20
105.4884904244
 30
0.0
 11
14.7751368558
 21
105.4884904244
 31
0.0
  0
LINE
  5
191
330
1F
100
AcDbEntity
  8
0
  6
Continuous
 62
     7
100
AcDbLine
 10
8.9112673974
 20
99.624620966
 30
0.0
 11
8.9112673974
 21
49.0884904244
 31
0.0
  0
LINE
  5
192
330
1F
100
AcDbEntity
  8
0
  6
Continuous
 62
     7
100
AcDbLine
 10
56.3112673974
 20
52.9384906147
 30
0.0
 11
56.3112673974
 21
25.4384906147
 31
0.0
  0
LINE
  5
193
330
1F
100
AcDbEntity
  8
0
  6
Continuous
 62
     7
100
AcDbLine
 10
56.3112673974
 20
25.4384906147
 30
0.0
 11
11.3112673974
 21
25.4384906147
 31
0.0
  0
LINE
  5
194
330
1F
100
AcDbEntity
  8
0
  6
Continuous
 62
     7
100
AcDbLine
 10
11.3112673974
 20
25.4384906147
 30
0.0
 11
11.3112673974
 21
52.9384906147
 31
0.0
  0
LINE
  5
195
330
1F
100
AcDbEntity
  8
0
  6
Continuous
 62
     7
100
AcDbLine
 10
11.3112673974
 20
52.9384906147
 30
0.0
 11
56.3112673974
 21
52.9384906147
 31
0.0
  0
LWPOLYLINE
  5
196
330
1F
100
AcDbEntity
  8
0
  6
Continuous
 62
     7
100
AcDbPolyline
 90
        3
 70
   128
 43
0.0
 10
66.1908958173
 20
6.4903917314
 10
60.367075232
 20
30.1028878703
 10
58.7112673974
 20
49.0884904244
  0
ARC
  5
197
330
1F
100
AcDbEntity
  8
0
  6
Continuous
 62
     7
100
AcDbCircle
 10
-130.8396514207
 20
51.6714812815
 30
0.0
 40
139.774784180261
100
AcDbArc
 50
341.140845352
 51
358.9411330513
  0
LWPOLYLINE
  5
198
330
1F
100
AcDbEntity
  8
0
  6
Continuous
 62
     7
100
AcDbPolyline
 90
        3
 70
   128
 43
0.0
 10
66.1908958173
 20
6.4903917314
 10
60.367075232
 20
30.1028878703
 10
58.7112673974
 20
49.0884904244
  0
ARC
  5
199
330
1F
100
AcDbEntity
  8
0
  6
Continuous
 62
     7
100
AcDbCircle
 10
-130.8396514207
 20
51.6714812815
 30
0.0
 40
139.774784180261
100
AcDbArc
 50
341.140845352
 51
358.9411330513
  0
SPLINE
  5
19D
330
1F
100
AcDbEntity
  8
0
  6
Continuous
 62
     7
370
    15
100
AcDbSpline
210
0.0
220
0.0
230
1.0
 70
     8
 71
     3
 72
    35
 73
    31
 74
     0
 42
0.00000001
 43
0.00000001
 12
1.0
 22
0.0
 32
0.0
 13
1.0
 23
0.0
 33
0.0
 40
0.0
 40
0.0
 40
0.0
 40
0.0
 40
0.0235484359977719
 40
0.047210689835263
 40
0.0709891457612959
 40
0.094886153243624
 40
0.1189040269593025
 40
0.1430450468189073
 40
0.1673114580230615
 40
0.1917054711497301
 40
0.2162292622707367
 40
0.2408849730959624
 40
0.2656747111436962
 40
0.290600549935622
 40
0.3156645292149503
 40
0.3408686551862237
 40
0.3662149007753591
 40
0.3917052059085158
 40
0.4173414778084195
 40
0.4431255913068091
 40
0.4690593891717121
 40
0.4951446824482908
 40
0.5213832508120626
 40
0.5824893408855077
 40
0.6459886797479346
 40
0.7119007766898868
 40
0.7802430747638031
 40
0.8510312205523554
 40
0.9242792932761981
 40
1.0
 40
1.0
 40
1.0
 40
1.0
 10
8.91126739741744
 20
49.08849042440536
 30
0.0
 10
8.910256924366225
 20
48.74768457466003
 30
0.0
 10
8.908231094293585
 20
48.06442564112015
 30
0.0
 10
8.892012023378845
 20
47.03713772721166
 30
0.0
 10
8.866160530510196
 20
46.00501424818374
 30
0.0
 10
8.829717128140063
 20
44.96805526968912
 30
0.0
 10
8.782940866922592
 20
43.92626078092118
 30
0.0
 10
8.725761863861377
 20
42.87963078956404
 30
0.0
 10
8.658199037303659
 20
41.82816529625568
 30
0.0
 10
8.580247328394355
 20
40.77186430157965
 30
0.0
 10
8.49190815173253
 20
39.71072780427073
 30
0.0
 10
8.39318117258247
 20
38.64475580181272
 30
0.0
 10
8.28406652780423
 20
37.57394829031636
 30
0.0
 10
8.164564224643103
 20
36.49830526486994
 30
0.0
 10
8.034674308095381
 20
35.41782671871135
 30
0.0
 10
7.894396796807468
 20
34.33251264666958
 30
0.0
 10
7.743731771346376
 20
33.24236303257588
 30
0.0
 10
7.582679083190234
 20
32.14737789698997
 30
0.0
 10
7.411239438862478
 20
31.04755711790003
 30
0.0
 10
7.229410321980004
 20
29.94290110598001
 30
0.0
 10
7.037201343658456
 20
28.83340826293827
 30
0.0
 10
6.834576453624331
 20
27.7190845502918
 30
0.0
 10
6.527785562826162
 20
26.10637737125192
 30
0.0
 10
6.089661882259147
 20
23.96755721378027
 30
0.0
 10
5.487093834159799
 20
21.2768022671844
 30
0.0
 10
4.814722355660189
 20
18.49478760197004
 30
0.0
 10
4.072656362246948
 20
15.62146999513685
 30
0.0
 10
3.260119737972741
 20
12.65708174877654
 30
0.0
 10
2.380232669037842
 20
9.600651431580953
 30
0.0
 10
1.751021762897098
 20
7.538534036048053
 30
0.0
 10
1.431194382502637
 20
6.490361478575554
 30
0.0
  0
SPLINE
  5
1A7
330
1F
100
AcDbEntity
  8
0
  6
Continuous
 62
     7
370
    15
100
AcDbSpline
210
0.0
220
0.0
230
1.0
 70
     8
 71
     3
 72
    32
 73
    28
 74
     0
 42
0.00000001
 43
0.00000001
 12
1.0
 22
0.0
 32
0.0
 13
1.0
 23
0.0
 33
0.0
 40
0.0
 40
0.0
 40
0.0
 40
0.0
 40
0.038207511608977
 40
0.0757943946666806
 40
0.1127621256657007
 40
0.1491122565460324
 40
0.1848464197151559
 40
0.2199663334729778
 40
0.2544738078791858
 40
0.288370751104384
 40
0.3216591763105798
 40
0.3543412091112437
 40
0.3864190956662801
 40
0.4178952114728859
 40
0.4487720709194509
 40
0.4790523376764324
 40
0.5289642152301783
 40
0.5783249152149523
 40
0.6271470963426097
 40
0.6754438407687617
 40
0.7232286622008495
 40
0.7705155132427225
 40
0.8173187918527122
 40
0.8636533467859435
 40
0.9095344818863875
 40
0.9549779590902507
 40
1.0
 40
1.0
 40
1.0
 40
1.0
 10
66.19120883619517
 20
6.490487638467587
 30
0.0
 10
66.02895597507025
 20
7.019104029933707
 30
0.0
 10
65.70708582770868
 20
8.067750165596909
 30
0.0
 10
65.24032680436551
 20
9.631533481210445
 30
0.0
 10
64.79041395735126
 20
11.1722557125262
 30
0.0
 10
64.35817301431038
 20
12.6901720993846
 30
0.0
 10
63.94338803927626
 20
14.18521612276248
 30
0.0
 10
63.54611527971709
 20
15.65740535636999
 30
0.0
 10
63.16633985887142
 20
17.10673542360334
 30
0.0
 10
62.80406555106192
 20
18.53320771495039
 30
0.0
 10
62.45929094560376
 20
19.93682208466979
 30
0.0
 10
62.13201711162257
 20
21.31757900933069
 30
0.0
 10
61.82224035876752
 20
22.6754781192834
 30
0.0
 10
61.52997314233838
 20
24.01052187952661
 30
0.0
 10
61.25516963576271
 20
25.32270268109949
 30
0.0
 10
60.94073804979153
 20
26.89910908688779
 30
0.0
 10
60.59729665158185
 20
28.74241338940523
 30
0.0
 10
60.23790825910208
 20
30.85544703971224
 30
0.0
 10
59.91637681738298
 20
32.9509327601323
 30
0.0
 10
59.63263144914509
 20
35.02885461903864
 30
0.0
 10
59.38669672403272
 20
37.08921711303883
 30
0.0
 10
59.17854923263344
 20
39.1320192923764
 30
0.0
 10
59.00826234935879
 20
41.15726159225713
 30
0.0
 10
58.87557496115244
 20
43.16494395387571
 30
0.0
 10
58.78145044840041
 20
45.15506656468704
 30
0.0
 10
58.72235002935673
 20
47.12762872163439
 30
0.0
 10
58.71495011716067
 20
48.43690295440498
 30
0.0
 10
58.71126739741765
 20
49.08849042440485
 30
0.0
  0
CIRCLE
  5
1AC
330
1F
100
AcDbEntity
  8
0
  6
Continuous
 62
     7
370
    15
100
AcDbCircle
 10
9.8112673974
 20
104.5884904244
 30
0.0
 40
1.600000000000009
  0
CIRCLE
  5
1AD
330
1F
100
AcDbEntity
  8
0
  6
Continuous
 62
     7
370
    15
100
AcDbCircle
 10
57.8112673974
 20
104.5884904244
 30
0.0
 40
1.600000000000009
  0
CIRCLE
  5
1AE
330
1F
100
AcDbEntity
  8
0
  6
Continuous
 62
     7
370
    15
100
AcDbCircle
 10
64.6225347948
 20
3.0
 30
0.0
 40
1.60000000000002
  0
CIRCLE
  5
1AF
330
1F
100
AcDbEntity
  8
0
  6
Continuous
 62
     7
370
    15
100
AcDbCircle
 10
3.0
 20
3.0
 30
0.0
 40
1.600000000000007
  0
LINE
  5
1C8
330
1F
100
AcDbEntity
  8
0
  6
Continuous
 62
     7
370
    15
100
AcDbLine
 10
8.9112673974
 20
99.624620966
 30
0.0
 11
8.9112673974
 21
49.0884904244
 31
0.0
  0
LINE
  5
1C9
330
1F
100
AcDbEntity
  8
0
  6
Continuous
 62
     7
370
    15
100
AcDbLine
 10
52.847397939
 20
105.4884904244
 30
0.0
 11
14.7751368558
 21
105.4884904244
 31
0.0
  0
LINE
  5
1CA
330
1F
100
AcDbEntity
  8
0
  6
Continuous
 62
     7
370
    15
100
AcDbLine
 10
58.7112673974
 20
49.0884904244
 30
0.0
 11
58.7112673974
 21
99.624620966
 31
0.0
  0
LINE
  5
1CB
330
1F
100
AcDbEntity
  8
0
  6
Continuous
 62
     7
370
    15
100
AcDbLine
 10
41.8112673974
 20
24.9384906147
 30
0.0
 11
25.8112673974
 21
24.9384906147
 31
0.0
  0
LINE
  5
1CC
330
1F
100
AcDbEntity
  8
0
  6
Continuous
 62
     7
370
    15
100
AcDbLine
 10
23.8112673974
 20
22.9384906147
 30
0.0
 11
23.8112673974
 21
13.9384906147
 31
0.0
  0
LINE
  5
1CD
330
1F
100
AcDbEntity
  8
0
  6
Continuous
 62
     7
370
    15
100
AcDbLine
 10
25.8112673974
 20
11.9384906147
 30
0.0
 11
41.8112673974
 21
11.9384906147
 31
0.0
  0
LINE
  5
1CE
330
1F
100
AcDbEntity
  8
0
  6
Continuous
 62
     7
370
    15
100
AcDbLine
 10
43.8112673974
 20
13.9384906147
 30
0.0
 11
43.8112673974
 21
22.9384906147
 31
0.0
  0
LINE
  5
1CF
330
1F
100
AcDbEntity
  8
0
  6
Continuous
 62
     7
370
    15
100
AcDbLine
 10
48.2112673974
 20
16.4884904244
 30
0.0
 11
55.2112673974
 21
16.4884904244
 31
0.0
  0
LINE
  5
1D0
330
1F
100
AcDbEntity
  8
0
  6
Continuous
 62
     7
370
    15
100
AcDbLine
 10
56.7112673974
 20
17.9884904244
 30
0.0
 11
56.7112673974
 21
20.9884904244
 31
0.0
  0
LINE
  5
1D1
330
1F
100
AcDbEntity
  8
0
  6
Continuous
 62
     7
370
    15
100
AcDbLine
 10
55.2112673974
 20
22.4884904244
 30
0.0
 11
48.2112673974
 21
22.4884904244
 31
0.0
  0
LINE
  5
1D2
330
1F
100
AcDbEntity
  8
0
  6
Continuous
 62
     7
370
    15
100
AcDbLine
 10
46.7112673974
 20
20.9884904244
 30
0.0
 11
46.7112673974
 21
17.9884904244
 31
0.0
  0
LINE
  5
1D3
330
1F
100
AcDbEntity
  8
0
  6
Continuous
 62
     7
370
    15
100
AcDbLine
 10
13.4112673974
 20
16.4884904244
 30
0.0
 11
19.4112673974
 21
16.4884904244
 31
0.0
  0
LINE
  5
1D4
330
1F
100
AcDbEntity
  8
0
  6
Continuous
 62
     7
370
    15
100
AcDbLine
 10
20.9112673974
 20
17.9884904244
 30
0.0
 11
20.9112673974
 21
20.9884904244
 31
0.0
  0
LINE
  5
1D5
330
1F
100
AcDbEntity
  8
0
  6
Continuous
 62
     7
370
    15
100
AcDbLine
 10
19.4112673974
 20
22.4884904244
 30
0.0
 11
13.4112673974
 21
22.4884904244
 31
0.0
  0
LINE
  5
1D6
330
1F
100
AcDbEntity
  8
0
  6
Continuous
 62
     7
370
    15
100
AcDbLine
 10
11.9112673974
 20
20.9884904244
 30
0.0
 11
11.9112673974
 21
17.9884904244
 31
0.0
  0
ARC
  5
1D7
330
1F
100
AcDbEntity
  8
0
  6
Continuous
 62
     7
370
    15
100
AcDbCircle
 10
10.0744718456
 20
-2.5634385146
 30
0.0
 40
6.00000000000517
100
AcDbArc
 50
121.7567941541
 51
141.8181199537
  0
ARC
  5
1D8
330
1F
100
AcDbEntity
  8
0
  6
Continuous
 62
     7
370
    15
100
AcDbCircle
 10
3.0
 20
3.0
 30
0.0
 40
3.000000000001266
100
AcDbArc
 50
144.2056959067
 51
321.8181199538
  0
ARC
  5
1D9
330
1F
100
AcDbEntity
  8
0
  6
Continuous
 62
     7
370
    15
100
AcDbCircle
 10
-4.3000977029
 20
8.2638933812
 30
0.0
 40
6.00000000000037
100
AcDbArc
 50
324.2056959067
 51
342.8054711858
  0
ARC
  5
1DA
330
1F
100
AcDbEntity
  8
0
  6
Continuous
 62
     7
370
    15
100
AcDbCircle
 10
2.9112673974
 20
99.624620966
 30
0.0
 40
5.999999999995533
100
AcDbArc
 50
360.0
 51
35.73129198
  0
ARC
  5
1DB
330
1F
100
AcDbEntity
  8
0
  6
Continuous
 62
     7
370
    15
100
AcDbCircle
 10
9.8112673974
 20
104.5884904244
 30
0.0
 40
2.500000000001276
100
AcDbArc
 50
54.2687080201
 51
215.73129198
  0
ARC
  5
1DC
330
1F
100
AcDbEntity
  8
0
  6
Continuous
 62
     7
370
    15
100
AcDbCircle
 10
14.7751368558
 20
111.4884904244
 30
0.0
 40
5.999999999998729
100
AcDbArc
 50
234.26870802
 51
270.0
  0
ARC
  5
1DD
330
1F
100
AcDbEntity
  8
0
  6
Continuous
 62
     7
370
    15
100
AcDbCircle
 10
52.847397939
 20
111.4884904244
 30
0.0
 40
6.00000000000131
100
AcDbArc
 50
270.0
 51
305.7312919799
  0
ARC
  5
1DE
330
1F
100
AcDbEntity
  8
0
  6
Continuous
 62
     7
370
    15
100
AcDbCircle
 10
57.8112673974
 20
104.5884904244
 30
0.0
 40
2.500000000001277
100
AcDbArc
 50
324.2687080201
 51
125.7312919799
  0
ARC
  5
1DF
330
1F
100
AcDbEntity
  8
0
  6
Continuous
 62
     7
370
    15
100
AcDbCircle
 10
64.7112673974
 20
99.624620966
 30
0.0
 40
5.999999999996191
100
AcDbArc
 50
144.26870802
 51
180.0
  0
ARC
  5
1E0
330
1F
100
AcDbEntity
  8
0
  6
Continuous
 62
     7
370
    15
100
AcDbCircle
 10
71.9223314875
 20
8.2643108045
 30
0.0
 40
6.000000000000543
100
AcDbArc
 50
197.1976636992
 51
215.7975803626
  0
ARC
  5
1E1
330
1F
100
AcDbEntity
  8
0
  6
Continuous
 62
     7
370
    15
100
AcDbCircle
 10
64.6225347948
 20
3.0
 30
0.0
 40
3.000000000001303
100
AcDbArc
 50
218.1818800463
 51
35.7975803626
  0
ARC
  5
1E2
330
1F
100
AcDbEntity
  8
0
  6
Continuous
 62
     7
370
    15
100
AcDbCircle
 10
57.5480629492
 20
-2.5634385146
 30
0.0
 40
6.000000000004484
100
AcDbArc
 50
38.1818800463
 51
58.2432058459
  0
ARC
  5
1E3
330
1F
100
AcDbEntity
  8
0
  6
Continuous
 62
     7
370
    15
100
AcDbCircle
 10
33.8112673974
 20
-40.9115095756
 30
0.0
 40
51.10000019034504
100
AcDbArc
 50
58.2432058459
 51
121.7567941541
  0
ARC
  5
1E4
330
1F
100
AcDbEntity
  8
0
  6
Continuous
 62
     7
370
    15
100
AcDbCircle
 10
41.8112673974
 20
22.9384906147
 30
0.0
 40
2.0
100
AcDbArc
 50
0.0
 51
90.0
  0
ARC
  5
1E5
330
1F
100
AcDbEntity
  8
0
  6
Continuous
 62
     7
370
    15
100
AcDbCircle
 10
25.8112673974
 20
22.9384906147
 30
0.0
 40
2.000000000000007
100
AcDbArc
 50
90.0
 51
180.0
  0
ARC
  5
1E6
330
1F
100
AcDbEntity
  8
0
  6
Continuous
 62
     7
370
    15
100
AcDbCircle
 10
25.8112673974
 20
13.9384906147
 30
0.0
 40
2.000000000000002
100
AcDbArc
 50
180.0
 51
270.0
  0
ARC
  5
1E7
330
1F
100
AcDbEntity
  8
0
  6
Continuous
 62
     7
370
    15
100
AcDbCircle
 10
41.8112673974
 20
13.9384906147
 30
0.0
 40
2.0
100
AcDbArc
 50
270.0
 51
0.0
  0
ARC
  5
1E8
330
1F
100
AcDbEntity
  8
0
  6
Continuous
 62
     7
370
    15
100
AcDbCircle
 10
48.2112673974
 20
17.9884904244
 30
0.0
 40
1.499999999999979
100
AcDbArc
 50
180.0
 51
270.0
  0
ARC
  5
1E9
330
1F
100
AcDbEntity
  8
0
  6
Continuous
 62
     7
370
    15
100
AcDbCircle
 10
55.2112673974
 20
17.9884904244
 30
0.0
 40
1.500000000000007
100
AcDbArc
 50
270.0
 51
0.0
  0
ARC
  5
1EA
330
1F
100
AcDbEntity
  8
0
  6
Continuous
 62
     7
370
    15
100
AcDbCircle
 10
55.2112673974
 20
20.9884904244
 30
0.0
 40
1.499999999999989
100
AcDbArc
 50
0.0
 51
90.0
  0
ARC
  5
1EB
330
1F
100
AcDbEntity
  8
0
  6
Continuous
 62
     7
370
    15
100
AcDbCircle
 10
48.2112673974
 20
20.9884904244
 30
0.0
 40
1.499999999999993
100
AcDbArc
 50
90.0
 51
180.0
  0
ARC
  5
1EC
330
1F
100
AcDbEntity
  8
0
  6
Continuous
 62
     7
370
    15
100
AcDbCircle
 10
13.4112673974
 20
17.9884904244
 30
0.0
 40
1.499999999999988
100
AcDbArc
 50
180.0
 51
270.0
  0
ARC
  5
1ED
330
1F
100
AcDbEntity
  8
0
  6
Continuous
 62
     7
370
    15
100
AcDbCircle
 10
19.4112673974
 20
17.9884904244
 30
0.0
 40
1.500000000000011
100
AcDbArc
 50
270.0
 51
0.0
  0
ARC
  5
1EE
330
1F
100
AcDbEntity
  8
0
  6
Continuous
 62
     7
370
    15
100
AcDbCircle
 10
19.4112673974
 20
20.9884904244
 30
0.0
 40
1.499999999999996
100
AcDbArc
 50
0.0
 51
90.0
  0
ARC
  5
1EF
330
1F
100
AcDbEntity
  8
0
  6
Continuous
 62
     7
370
    15
100
AcDbCircle
 10
13.4112673974
 20
20.9884904244
 30
0.0
 40
1.5
100
AcDbArc
 50
90.0
 51
180.0
  0
ENDSEC
  0
SECTION
  2
OBJECTS
  0
DICTIONARY
  5
C
330
0
100
AcDbDictionary
281
     1
  3
ACAD_GROUP
350
D
  3
ACAD_LAYOUT
350
1A
  3
ACAD_MLINESTYLE
350
17
  3
ACAD_PLOTSETTINGS
350
19
  3
ACAD_PLOTSTYLENAME
350
E
  3
ACAD_SCALELIST
350
1F0
  3
AcDbVariableDictionary
350
212
  0
DICTIONARY
  5
D
102
{ACAD_REACTORS
330
C
102
}
330
C
100
AcDbDictionary
281
     1
  0
DICTIONARY
  5
1A
102
{ACAD_REACTORS
330
C
102
}
330
C
100
AcDbDictionary
281
     1
  3
Layout1
350
1E
  3
Layout2
350
26
  3
Model
350
22
  0
DICTIONARY
  5
17
102
{ACAD_REACTORS
330
C
102
}
330
C
100
AcDbDictionary
281
     1
  3
Standard
350
18
  0
DICTIONARY
  5
19
102
{ACAD_REACTORS
330
C
102
}
330
C
100
AcDbDictionary
281
     1
  0
ACDBDICTIONARYWDFLT
  5
E
102
{ACAD_REACTORS
330
C
102
}
330
C
100
AcDbDictionary
281
     1
  3
Normal
350
F
100
AcDbDictionaryWithDefault
340
F
  0
DICTIONARY
  5
1F0
102
{ACAD_REACTORS
330
C
102
}
330
C
100
AcDbDictionary
281
     1
  3
A0
350
1F1
  3
A1
350
1F2
  3
A2
350
1F3
  3
A3
350
1F4
  3
A4
350
1F5
  3
A5
350
1F6
  3
A6
350
1F7
  3
A7
350
1F8
  3
A8
350
1F9
  3
A9
350
1FA
  3
B0
350
1FB
  3
B1
350
1FC
  3
B2
350
1FD
  3
B3
350
1FE
  3
B4
350
1FF
  3
B5
350
200
  3
B6
350
201
  3
B7
350
202
  3
B8
350
203
  3
B9
350
204
  3
C0
350
205
  3
C1
350
206
  3
C2
350
207
  3
C3
350
208
  3
C4
350
209
  3
C5
350
20A
  3
C6
350
20B
  3
C7
350
20C
  3
C8
350
20D
  3
C9
350
20E
  3
D0
350
20F
  3
D1
350
210
  3
D2
350
211
  0
DICTIONARY
  5
212
102
{ACAD_REACTORS
330
C
102
}
330
C
100
AcDbDictionary
281
     1
  3
CANNOSCALE
350
213
  0
LAYOUT
  5
1E
102
{ACAD_REACTORS
330
1A
102
}
330
1A
100
AcDbPlotSettings
  1

  2
none_device
  4

  6

 40
0.0
 41
0.0
 42
0.0
 43
0.0
 44
0.0
 45
0.0
 46
0.0
 47
0.0
 48
0.0
 49
0.0
140
0.0
141
0.0
142
1.0
143
1.0
 70
   688
 72
     0
 73
     0
 74
     5
  7

 75
    16
147
1.0
148
0.0
149
0.0
100
AcDbLayout
  1
Layout1
 70
     1
 71
     1
 10
0.0
 20
0.0
 11
420.0
 21
297.0
 12
0.0
 22
0.0
 32
0.0
 14
1.0000000000E+20
 24
1.0000000000E+20
 34
1.0000000000E+20
 15
-1.0000000000E+20
 25
-1.0000000000E+20
 35
-1.0000000000E+20
146
0.0
 13
0.0
 23
0.0
 33
0.0
 16
1.0
 26
0.0
 36
0.0
 17
0.0
 27
1.0
 37
0.0
 76
     0
330
1B
  0
LAYOUT
  5
26
102
{ACAD_REACTORS
330
1A
102
}
330
1A
100
AcDbPlotSettings
  1

  2
none_device
  4

  6

 40
0.0
 41
0.0
 42
0.0
 43
0.0
 44
0.0
 45
0.0
 46
0.0
 47
0.0
 48
0.0
 49
0.0
140
0.0
141
0.0
142
1.0
143
1.0
 70
   688
 72
     0
 73
     0
 74
     5
  7

 75
    16
147
1.0
148
0.0
149
0.0
100
AcDbLayout
  1
Layout2
 70
     1
 71
     2
 10
0.0
 20
0.0
 11
0.0
 21
0.0
 12
0.0
 22
0.0
 32
0.0
 14
0.0
 24
0.0
 34
0.0
 15
0.0
 25
0.0
 35
0.0
146
0.0
 13
0.0
 23
0.0
 33
0.0
 16
1.0
 26
0.0
 36
0.0
 17
0.0
 27
1.0
 37
0.0
 76
     0
330
23
  0
LAYOUT
  5
22
102
{ACAD_REACTORS
330
1A
102
}
330
1A
100
AcDbPlotSettings
  1

  2
none_device
  4
ANSI_A_(11.00_x_8.50_Inches)
  6

 40
6.35
 41
19.05
 42
6.35000508
 43
19.05000254
 44
279.4
 45
215.9
 46
65.8651157874
 47
-17.97050127
 48
0.0
 49
0.0
140
0.0
141
0.0
142
0.0785798732
143
1.0
 70
  1696
 72
     0
 73
     0
 74
     0
  7

 75
     0
147
0.0179189148
148
0.0
149
0.0
100
AcDbLayout
  1
Model
 70
     1
 71
     0
 10
0.0
 20
0.0
 11
420.0
 21
297.0
 12
0.0
 22
0.0
 32
0.0
 14
0.0
 24
0.0
 34
0.0
 15
67.6225347948
 25
107.0884904244
 35
0.0
146
0.0
 13
0.0
 23
0.0
 33
0.0
 16
1.0
 26
0.0
 36
0.0
 17
0.0
 27
1.0
 37
0.0
 76
     0
330
1F
331
29
  0
MLINESTYLE
  5
18
102
{ACAD_REACTORS
330
17
102
}
330
17
100
AcDbMlineStyle
  2
Standard
 70
     0
  3

 62
   256
 51
90.0
 52
90.0
 71
     2
 49
0.5
 62
   256
  6
BYLAYER
 49
-0.5
 62
   256
  6
BYLAYER
  0
ACDBPLACEHOLDER
  5
F
102
{ACAD_REACTORS
330
E
102
}
330
E
  0
SCALE
  5
1F1
102
{ACAD_REACTORS
330
1F0
102
}
330
1F0
100
AcDbScale
 70
     0
300
1:1
140
1.0
141
1.0
290
     1
  0
SCALE
  5
1F2
102
{ACAD_REACTORS
330
1F0
102
}
330
1F0
100
AcDbScale
 70
     0
300
1:2
140
1.0
141
2.0
290
     0
  0
SCALE
  5
1F3
102
{ACAD_REACTORS
330
1F0
102
}
330
1F0
100
AcDbScale
 70
     0
300
1:4
140
1.0
141
4.0
290
     0
  0
SCALE
  5
1F4
102
{ACAD_REACTORS
330
1F0
102
}
330
1F0
100
AcDbScale
 70
     0
300
1:5
140
1.0
141
5.0
290
     0
  0
SCALE
  5
1F5
102
{ACAD_REACTORS
330
1F0
102
}
330
1F0
100
AcDbScale
 70
     0
300
1:8
140
1.0
141
8.0
290
     0
  0
SCALE
  5
1F6
102
{ACAD_REACTORS
330
1F0
102
}
330
1F0
100
AcDbScale
 70
     0
300
1:10
140
1.0
141
10.0
290
     0
  0
SCALE
  5
1F7
102
{ACAD_REACTORS
330
1F0
102
}
330
1F0
100
AcDbScale
 70
     0
300
1:16
140
1.0
141
16.0
290
     0
  0
SCALE
  5
1F8
102
{ACAD_REACTORS
330
1F0
102
}
330
1F0
100
AcDbScale
 70
     0
300
1:20
140
1.0
141
20.0
290
     0
  0
SCALE
  5
1F9
102
{ACAD_REACTORS
330
1F0
102
}
330
1F0
100
AcDbScale
 70
     0
300
1:30
140
1.0
141
30.0
290
     0
  0
SCALE
  5
1FA
102
{ACAD_REACTORS
330
1F0
102
}
330
1F0
100
AcDbScale
 70
     0
300
1:40
140
1.0
141
40.0
290
     0
  0
SCALE
  5
1FB
102
{ACAD_REACTORS
330
1F0
102
}
330
1F0
100
AcDbScale
 70
     0
300
1:50
140
1.0
141
50.0
290
     0
  0
SCALE
  5
1FC
102
{ACAD_REACTORS
330
1F0
102
}
330
1F0
100
AcDbScale
 70
     0
300
1:100
140
1.0
141
100.0
290
     0
  0
SCALE
  5
1FD
102
{ACAD_REACTORS
330
1F0
102
}
330
1F0
100
AcDbScale
 70
     0
300
2:1
140
2.0
141
1.0
290
     0
  0
SCALE
  5
1FE
102
{ACAD_REACTORS
330
1F0
102
}
330
1F0
100
AcDbScale
 70
     0
300
4:1
140
4.0
141
1.0
290
     0
  0
SCALE
  5
1FF
102
{ACAD_REACTORS
330
1F0
102
}
330
1F0
100
AcDbScale
 70
     0
300
8:1
140
8.0
141
1.0
290
     0
  0
SCALE
  5
200
102
{ACAD_REACTORS
330
1F0
102
}
330
1F0
100
AcDbScale
 70
     0
300
10:1
140
10.0
141
1.0
290
     0
  0
SCALE
  5
201
102
{ACAD_REACTORS
330
1F0
102
}
330
1F0
100
AcDbScale
 70
     0
300
100:1
140
100.0
141
1.0
290
     0
  0
SCALE
  5
202
102
{ACAD_REACTORS
330
1F0
102
}
330
1F0
100
AcDbScale
 70
     0
300
1/128" = 1'-0"
140
0.0078125
141
12.0
290
     0
  0
SCALE
  5
203
102
{ACAD_REACTORS
330
1F0
102
}
330
1F0
100
AcDbScale
 70
     0
300
1/64" = 1'-0"
140
0.015625
141
12.0
290
     0
  0
SCALE
  5
204
102
{ACAD_REACTORS
330
1F0
102
}
330
1F0
100
AcDbScale
 70
     0
300
1/32" = 1'-0"
140
0.03125
141
12.0
290
     0
  0
SCALE
  5
205
102
{ACAD_REACTORS
330
1F0
102
}
330
1F0
100
AcDbScale
 70
     0
300
1/16" = 1'-0"
140
0.0625
141
12.0
290
     0
  0
SCALE
  5
206
102
{ACAD_REACTORS
330
1F0
102
}
330
1F0
100
AcDbScale
 70
     0
300
3/32" = 1'-0"
140
0.09375
141
12.0
290
     0
  0
SCALE
  5
207
102
{ACAD_REACTORS
330
1F0
102
}
330
1F0
100
AcDbScale
 70
     0
300
1/8" = 1'-0"
140
0.125
141
12.0
290
     0
  0
SCALE
  5
208
102
{ACAD_REACTORS
330
1F0
102
}
330
1F0
100
AcDbScale
 70
     0
300
3/16" = 1'-0"
140
0.1875
141
12.0
290
     0
  0
SCALE
  5
209
102
{ACAD_REACTORS
330
1F0
102
}
330
1F0
100
AcDbScale
 70
     0
300
1/4" = 1'-0"
140
0.25
141
12.0
290
     0
  0
SCALE
  5
20A
102
{ACAD_REACTORS
330
1F0
102
}
330
1F0
100
AcDbScale
 70
     0
300
3/8" = 1'-0"
140
0.375
141
12.0
290
     0
  0
SCALE
  5
20B
102
{ACAD_REACTORS
330
1F0
102
}
330
1F0
100
AcDbScale
 70
     0
300
1/2" = 1'-0"
140
0.5
141
12.0
290
     0
  0
SCALE
  5
20C
102
{ACAD_REACTORS
330
1F0
102
}
330
1F0
100
AcDbScale
 70
     0
300
3/4" = 1'-0"
140
0.75
141
12.0
290
     0
  0
SCALE
  5
20D
102
{ACAD_REACTORS
330
1F0
102
}
330
1F0
100
AcDbScale
 70
     0
300
1" = 1'-0"
140
1.0
141
12.0
290
     0
  0
SCALE
  5
20E
102
{ACAD_REACTORS
330
1F0
102
}
330
1F0
100
AcDbScale
 70
     0
300
1-1/2" = 1'-0"
140
1.5
141
12.0
290
     0
  0
SCALE
  5
20F
102
{ACAD_REACTORS
330
1F0
102
}
330
1F0
100
AcDbScale
 70
     0
300
3" = 1'-0"
140
3.0
141
12.0
290
     0
  0
SCALE
  5
210
102
{ACAD_REACTORS
330
1F0
102
}
330
1F0
100
AcDbScale
 70
     0
300
6" = 1'-0"
140
6.0
141
12.0
290
     0
  0
SCALE
  5
211
102
{ACAD_REACTORS
330
1F0
102
}
330
1F0
100
AcDbScale
 70
     0
300
1'-0" = 1'-0"
140
12.0
141
12.0
290
     0
  0
DICTIONARYVAR
  5
213
102
{ACAD_REACTORS
330
212
102
}
330
212
100
DictionaryVariables
280
     0
  1
1:1
  0
ENDSEC
  0
EOF
